<svg width="48" height="48" viewBox="0 0 48 48" fill="none" xmlns="http://www.w3.org/2000/svg">
<rect width="48" height="48" rx="3" fill="#707070"/>
<path d="M47 45.0204C47 46.125 46.1046 47.0204 45 47.0204H43.4337V37.2596C43.4337 36.7966 43.3149 36.4472 43.0771 36.2113C42.8394 35.9663 42.4827 35.8437 42.0072 35.8437H35.5741V32.3042H42.0072C42.3455 32.3042 42.7022 32.3451 43.0771 32.4267C43.452 32.4993 43.8224 32.6173 44.1881 32.7807C44.5631 32.9441 44.9197 33.1573 45.258 33.4205C45.5964 33.6746 45.8936 33.9878 46.1496 34.3599C46.4057 34.7229 46.6114 35.1449 46.7668 35.6259C46.9223 36.1069 47 36.6515 47 37.2596V45.0204ZM34.1339 47.0204H30.5675V26.0829H34.1339V47.0204Z" fill="#FF7A00"/>
<path d="M33.5358 24.0681H10.9857V16.9346H33.5358V24.0681ZM36.7181 8.05863H8.13264V40.0231H1V4.54635C1 4.05626 1.09144 3.5934 1.27433 3.15777C1.45722 2.72214 1.70412 2.34096 2.01503 2.01424C2.34423 1.68752 2.72829 1.4334 3.16722 1.25188C3.60616 1.07037 4.08166 0.979614 4.59375 0.979614H36.7181V8.05863Z" fill="black"/>
</svg>
