<svg width="190" height="224" viewBox="0 0 190 224" fill="none" xmlns="http://www.w3.org/2000/svg">
<path fill-rule="evenodd" clip-rule="evenodd" d="M81.8664 2.1875H108.134C113.453 2.1875 117.765 6.49674 117.765 11.8125V19.6875C117.765 20.8956 116.785 21.875 115.576 21.875H74.424C73.2152 21.875 72.235 20.8956 72.235 19.6875V11.8125C72.235 6.49674 76.5472 2.1875 81.8664 2.1875ZM70.0461 11.8125C70.0461 5.28863 75.3381 0 81.8664 0H108.134C114.662 0 119.954 5.28863 119.954 11.8125V19.6875C119.954 22.1037 117.994 24.0625 115.576 24.0625H112.73V35.7756C128.257 38.7047 142.448 45.409 154.313 54.8979L160.52 48.6951C162.657 46.5596 166.122 46.5596 168.259 48.6951L174.764 55.1954C176.9 57.3313 176.9 60.7937 174.764 62.9296L168.626 69.0624C181.987 85.4162 190 106.304 190 129.062C190 181.495 147.467 224 95 224C42.5329 224 0 181.495 0 129.062C0 82.6083 33.3865 43.9473 77.4885 35.7346V24.0625H74.424C72.0061 24.0625 70.0461 22.1037 70.0461 19.6875V11.8125ZM79.6774 24.0625V35.3535C84.6656 34.5452 89.7838 34.125 95 34.125C100.293 34.125 105.485 34.5576 110.541 35.3892V24.0625H79.6774ZM173.216 61.3826L167.217 67.3776C163.795 63.3811 160.047 59.6715 156.015 56.2909L162.068 50.2421C163.35 48.9606 165.429 48.9606 166.711 50.2421L173.216 56.7424C174.498 58.0239 174.498 60.1011 173.216 61.3826ZM93.5124 89.8319L84.7895 125.116C84.3153 126.34 84.0553 127.671 84.0553 129.062C84.0553 135.103 88.9555 140 95 140C101.045 140 105.945 135.103 105.945 129.062C105.945 127.671 105.685 126.34 105.211 125.116L96.4876 89.8319C96.1037 88.2801 93.8963 88.2796 93.5124 89.8319ZM86.869 125.825L86.8637 125.824C86.464 126.825 86.2442 127.918 86.2442 129.062C86.2442 133.895 90.1642 137.812 95 137.812C99.8358 137.812 103.756 133.895 103.756 129.062C103.756 127.918 103.536 126.825 103.136 125.824L103.131 125.825L103.122 125.787C101.824 122.577 98.677 120.312 95 120.312C91.323 120.312 88.1758 122.577 86.8782 125.787L86.869 125.825ZM95 118.125C97.5768 118.125 99.9457 119.015 101.815 120.504L95 92.9351L88.1845 120.504C90.0543 119.015 92.4232 118.125 95 118.125ZM95 221.812C146.258 221.812 187.811 180.287 187.811 129.062C187.811 77.8382 146.258 36.3125 95 36.3125C43.7419 36.3125 2.18894 77.8382 2.18894 129.062C2.18894 180.287 43.7419 221.812 95 221.812ZM167.235 129.062C167.235 168.931 134.894 201.25 95 201.25C55.1057 201.25 22.765 168.931 22.765 129.062C22.765 89.1944 55.1057 56.875 95 56.875C134.894 56.875 167.235 89.1944 167.235 129.062ZM169.424 129.062C169.424 170.139 136.103 203.438 95 203.438C53.897 203.438 20.576 170.139 20.576 129.062C20.576 87.9865 53.897 54.6875 95 54.6875C136.103 54.6875 169.424 87.9865 169.424 129.062ZM93.9055 66.5V78.75H96.0945V66.5H93.9055ZM129.679 92.7719L138.346 84.1098L139.894 85.6568L131.227 94.3189L129.679 92.7719ZM58.6688 163.735L50.0011 172.397L51.5491 173.944L60.2169 165.282L58.6688 163.735ZM144.908 127.969H157.166V130.156H144.908V127.969ZM45.0922 127.969H32.8341V130.156H45.0922V127.969ZM93.9055 191.625V179.375H96.0945V191.625H93.9055ZM50.0094 85.6485L58.6772 94.3106L60.2252 92.7636L51.5574 84.1015L50.0094 85.6485ZM138.355 173.936L129.687 165.273L131.235 163.727L139.903 172.389L138.355 173.936Z" fill="#FF7A00"/>
</svg>
