<svg width="259" height="151" viewBox="0 0 259 151" fill="none" xmlns="http://www.w3.org/2000/svg">
<g clip-path="url(#clip0_157_55)">
<path fill-rule="evenodd" clip-rule="evenodd" d="M69.7685 1.22754H69.6384L69.574 1.33995L52.5625 30.9365H18.5938V31.3844H52.6062L55.8241 36.9204L69.4298 60.6357L52.5407 90.0186L52.4767 90.1303H18.5191H18.3895L18.3248 90.2427L1.29152 119.877L1.22748 119.988L1.29143 120.1L18.2501 149.66L18.3146 149.772H18.4444H52.7351H52.8645L52.9292 149.661L70.0374 120.026L70.1018 119.914H103.726L103.79 120.025L120.749 149.585L120.813 149.697H120.943H155.234V149.25H121.073L104.243 119.914L121.148 90.5035H155.03L157.409 94.5959L171.998 120.025L172.143 119.942L172.147 119.952L172.536 119.727L157.797 94.3731L155.509 90.382L172.503 60.944H206.268L206.289 60.9808L223.247 90.5404L223.311 90.6527H223.441H257.732V90.2052H224.064H223.889H223.778L223.785 90.1672L206.747 60.8583L223.71 31.3466L223.322 31.1236L206.44 60.4961H206.408H172.588L155.428 30.9734L155.362 30.8618H155.234H121.265L104.103 1.33901L104.039 1.22754H103.91H69.7685ZM70.0902 60.8693H103.868L105.321 63.3696L120.732 90.2322L103.855 119.466H69.8422L68.4318 117.04L53.0953 90.3077L70.0902 60.8693ZM103.941 60.2722L120.833 31.0116L103.78 1.67541H69.8981L52.9935 31.0859L56.2124 36.6967L69.9165 60.2722H103.91H103.941ZM155.147 90.0561H121.351L121.286 89.9431L105.709 63.1455L104.317 60.7202L121.222 31.3097H155.105L172.104 60.5539L172.072 60.6085L155.147 90.0561ZM68.0433 117.264L69.4991 119.801L69.5636 119.914H69.5838L52.6057 149.324H18.5743L1.74426 119.989L18.6488 90.5784H52.5315L68.0433 117.264Z" fill="#FF7A00" stroke="#FF7A00" stroke-width="3"/>
<path fill-rule="evenodd" clip-rule="evenodd" d="M113.859 75.0281C109.399 67.3545 105.75 60.9226 105.75 60.7351C105.75 60.5477 109.354 54.1101 113.757 46.4294L121.765 32.4646L138.183 32.469L154.6 32.4734L162.59 46.2739C166.985 53.8641 170.618 60.2164 170.665 60.3902C170.711 60.564 167.116 67.0627 162.675 74.8317L154.6 88.9571L138.284 88.9687L121.967 88.9802L113.859 75.0281Z" fill="#FF7A00" stroke="#FF7A00" stroke-width="1.491" stroke-miterlimit="0" stroke-linejoin="round"/>
</g>
<defs>
<clipPath id="clip0_157_55">
<rect width="259" height="151" fill="white"/>
</clipPath>
</defs>
</svg>
