<svg width="71" height="129" viewBox="0 0 71 129" fill="none" xmlns="http://www.w3.org/2000/svg">
<path fill-rule="evenodd" clip-rule="evenodd" d="M0 1.76229C0 0.789008 0.788017 0 1.76008 0H7.03519H64.771H68.6432C69.6153 0 70.4033 0.789008 70.4033 1.76229C70.4033 2.73558 69.6153 3.52459 68.6432 3.52459H66.5311V16.9056C66.6494 25.3776 62.6776 45.1267 45.7221 57.1275L45.7211 57.1282C43.5099 58.691 42.3079 60.1922 41.7092 61.5168C41.1204 62.82 41.065 64.0615 41.3345 65.2318C41.8933 67.6577 43.8827 69.8567 45.6841 71.1403C54.081 76.4392 69.3441 94.3455 66.5387 124.77H68.6432C69.6153 124.77 70.4033 125.559 70.4033 126.533C70.4033 127.506 69.6153 128.295 68.6432 128.295H1.76008C0.788017 128.295 0 127.506 0 126.533C0 125.559 0.788017 124.77 1.76008 124.77H5.26745C2.46208 94.3455 17.7252 76.4392 26.1222 71.1403C27.9235 69.8567 29.9129 67.6577 30.4717 65.2318C30.7412 64.0615 30.6858 62.82 30.0969 61.5168C29.4983 60.1922 28.2963 58.691 26.0851 57.1282L26.0841 57.1275C9.12863 45.1267 5.15684 25.3776 5.2751 16.9056V3.52459H1.76008C0.788017 3.52459 0 2.73558 0 1.76229ZM63.0187 124.605C63.0135 124.661 63.0109 124.715 63.0108 124.77H8.79541C8.79534 124.715 8.79274 124.661 8.78746 124.605C6.0363 95.4057 20.7144 78.6942 28.0349 74.0996L28.0758 74.0742L28.1151 74.046C30.2936 72.5065 33.0681 69.6436 33.9018 66.0239C34.0073 65.5659 34.0811 65.0973 34.1186 64.6203L33.7999 95.2499C32.1531 97.3182 29.4434 100.409 26.2761 103.442C22.842 106.73 18.9816 109.839 15.4292 111.551C12.7388 112.848 11.2492 115.013 10.4486 117.025C9.65757 119.013 9.50437 120.924 9.50437 121.951V123.713H11.2645H60.1948H61.9549V121.951C61.9549 120.748 61.8456 118.713 61.0595 116.701C60.2555 114.642 58.7135 112.551 55.8846 111.489C55.0219 111.166 53.6965 110.333 52.0188 109.041C50.3821 107.78 48.5403 106.185 46.6712 104.466C43.1812 101.257 39.6633 97.677 37.321 95.1808L37.6657 62.0511L37.6658 62.0419V62.0328C37.6658 61.9729 37.6648 61.9115 37.663 61.8488C37.6653 61.812 37.6577 61.7607 37.6481 61.6959L37.6481 61.6959C37.6192 61.5019 37.5725 61.1877 37.7224 60.7848C37.8805 60.3596 38.2079 59.8807 38.5825 59.3326L38.5826 59.3326L38.5826 59.3324C38.7508 59.0865 38.9284 58.8267 39.1045 58.5515C40.2402 56.7773 42.0722 54.6273 44.7495 52.4827L44.7685 52.4675L44.787 52.4519C56.149 42.8257 60.4781 30.2133 61.2332 24.9213L57.9982 23.7381C57.4312 23.5946 56.6548 23.772 55.9687 23.9288C55.5969 24.0137 55.2516 24.0926 54.9805 24.1111C52.3535 24.2628 48.1573 24.0567 41.782 22.9857C28.9486 15.8136 16.132 17.5347 10.8779 19.2883L9.54833 19.732L9.65505 20.9362C10.2733 27.3748 14.2015 42.533 27.0851 52.501L27.1717 52.568L27.2659 52.6237C32.7518 55.8695 34.0607 60.2556 34.1415 61.8759C34.1411 61.9411 34.1423 62.0059 34.1451 62.0701L34.1316 63.3727C34.0686 62.2934 33.8096 61.1825 33.3041 60.0639C32.3817 58.0226 30.6913 56.0696 28.1151 54.2488C12.4131 43.1344 8.68291 24.6917 8.79506 16.9435L8.79527 16.9308V16.918V3.52459H63.0109V16.918V16.9308L63.0111 16.9435C63.1232 24.6917 59.3931 43.1344 43.6911 54.2488C41.1148 56.0696 39.4245 58.0226 38.5021 60.0639C37.5699 62.1267 37.4757 64.163 37.9044 66.0239C38.7381 69.6436 41.5126 72.5065 43.6911 74.046L43.7304 74.0742L43.7712 74.0996C51.0918 78.6942 65.7699 95.4057 63.0187 124.605Z" fill="#FF7900"/>
</svg>
