<svg width="119" height="35" viewBox="0 0 119 35" fill="none" xmlns="http://www.w3.org/2000/svg">
<path d="M13.0566 19.2773H5.0293V16.7188H13.0566V19.2773ZM14.1895 13.5352H4.01367V25H1.47461V12.2754C1.47461 12.0996 1.50716 11.9336 1.57227 11.7773C1.63737 11.6211 1.72526 11.4844 1.83594 11.3672C1.95312 11.25 2.08984 11.1589 2.24609 11.0938C2.40234 11.0286 2.57161 10.9961 2.75391 10.9961H14.1895V13.5352ZM27.1484 21.4355C27.1484 21.8717 27.0931 22.2656 26.9824 22.6172C26.8717 22.9622 26.7253 23.2682 26.543 23.5352C26.3607 23.7956 26.1491 24.0202 25.9082 24.209C25.6673 24.3913 25.4134 24.541 25.1465 24.6582C24.8861 24.7754 24.6191 24.8633 24.3457 24.9219C24.0788 24.974 23.8249 25 23.584 25H19.0039C18.6523 25 18.2682 24.9382 17.8516 24.8145C17.4349 24.6908 17.0475 24.4889 16.6895 24.209C16.3379 23.9225 16.0417 23.5547 15.8008 23.1055C15.5664 22.6497 15.4492 22.0931 15.4492 21.4355V17.998C15.4492 17.347 15.5664 16.7969 15.8008 16.3477C16.0417 15.8919 16.3379 15.5241 16.6895 15.2441C17.0475 14.9577 17.4349 14.7526 17.8516 14.6289C18.2682 14.5052 18.6523 14.4434 19.0039 14.4434H23.584C24.235 14.4434 24.7884 14.5605 25.2441 14.7949C25.6999 15.0293 26.0677 15.3255 26.3477 15.6836C26.6276 16.0352 26.8294 16.4193 26.9531 16.8359C27.0833 17.2526 27.1484 17.64 27.1484 17.998V21.4355ZM24.6094 18.0176C24.6094 17.666 24.5215 17.4056 24.3457 17.2363C24.1699 17.0671 23.916 16.9824 23.584 16.9824H19.0234C18.6849 16.9824 18.4277 17.0703 18.252 17.2461C18.0762 17.4154 17.9883 17.666 17.9883 17.998V21.4355C17.9883 21.7676 18.0762 22.0215 18.252 22.1973C18.4277 22.373 18.6849 22.4609 19.0234 22.4609H23.584C23.929 22.4609 24.1862 22.373 24.3555 22.1973C24.5247 22.0215 24.6094 21.7676 24.6094 21.4355V18.0176ZM38.5547 16.9824H32.8418C32.4967 16.9824 32.2363 17.0703 32.0605 17.2461C31.8848 17.4154 31.7969 17.666 31.7969 17.998V25H29.2578V17.998C29.2578 17.5618 29.3132 17.1712 29.4238 16.8262C29.5345 16.4811 29.681 16.1784 29.8633 15.918C30.0521 15.651 30.2669 15.4264 30.5078 15.2441C30.7487 15.0553 30.9993 14.9023 31.2598 14.7852C31.5267 14.668 31.7936 14.5833 32.0605 14.5312C32.334 14.4727 32.5879 14.4434 32.8223 14.4434H38.5547V16.9824ZM49.834 16.9824H45.4004V25H42.832V16.9824H39.5312V14.4434H42.832V10.9961H45.4004V14.4434H49.834V16.9824ZM63.0469 23.7207C63.0469 23.903 63.0143 24.0723 62.9492 24.2285C62.8841 24.3848 62.793 24.5215 62.6758 24.6387C62.5651 24.7493 62.4316 24.8372 62.2754 24.9023C62.1257 24.9674 61.9629 25 61.7871 25H56.0449C55.7324 25 55.3971 24.9642 55.0391 24.8926C54.6875 24.821 54.3392 24.707 53.9941 24.5508C53.6491 24.388 53.3138 24.1862 52.9883 23.9453C52.6693 23.6979 52.3893 23.4017 52.1484 23.0566C51.9076 22.7051 51.7122 22.3014 51.5625 21.8457C51.4193 21.39 51.3477 20.8757 51.3477 20.3027V14.4434H53.8867V20.3027C53.8867 20.6348 53.9421 20.9342 54.0527 21.2012C54.1699 21.4616 54.3262 21.6862 54.5215 21.875C54.7168 22.0638 54.9447 22.2103 55.2051 22.3145C55.472 22.4121 55.7585 22.4609 56.0645 22.4609H60.5078V14.4434H63.0469V23.7207ZM68.2715 16.7188H77.1875V10.9961H79.7266V25H77.1875V19.2773H68.2715V25H65.7324V10.9961H68.2715V16.7188ZM93.8281 21.4355C93.8281 21.8717 93.7728 22.2656 93.6621 22.6172C93.5514 22.9622 93.4049 23.2682 93.2227 23.5352C93.0404 23.7956 92.8288 24.0202 92.5879 24.209C92.347 24.3913 92.0931 24.541 91.8262 24.6582C91.5658 24.7754 91.2988 24.8633 91.0254 24.9219C90.7585 24.974 90.5046 25 90.2637 25H85.6836C85.332 25 84.9479 24.9382 84.5312 24.8145C84.1146 24.6908 83.7272 24.4889 83.3691 24.209C83.0176 23.9225 82.7214 23.5547 82.4805 23.1055C82.2461 22.6497 82.1289 22.0931 82.1289 21.4355V17.998C82.1289 17.347 82.2461 16.7969 82.4805 16.3477C82.7214 15.8919 83.0176 15.5241 83.3691 15.2441C83.7272 14.9577 84.1146 14.7526 84.5312 14.6289C84.9479 14.5052 85.332 14.4434 85.6836 14.4434H90.2637C90.9147 14.4434 91.4681 14.5605 91.9238 14.7949C92.3796 15.0293 92.7474 15.3255 93.0273 15.6836C93.3073 16.0352 93.5091 16.4193 93.6328 16.8359C93.763 17.2526 93.8281 17.64 93.8281 17.998V21.4355ZM91.2891 18.0176C91.2891 17.666 91.2012 17.4056 91.0254 17.2363C90.8496 17.0671 90.5957 16.9824 90.2637 16.9824H85.7031C85.3646 16.9824 85.1074 17.0703 84.9316 17.2461C84.7559 17.4154 84.668 17.666 84.668 17.998V21.4355C84.668 21.7676 84.7559 22.0215 84.9316 22.1973C85.1074 22.373 85.3646 22.4609 85.7031 22.4609H90.2637C90.6087 22.4609 90.8659 22.373 91.0352 22.1973C91.2044 22.0215 91.2891 21.7676 91.2891 21.4355V18.0176ZM106.201 21.4355C106.201 21.8717 106.146 22.2656 106.035 22.6172C105.924 22.9622 105.778 23.2682 105.596 23.5352C105.413 23.7956 105.202 24.0202 104.961 24.209C104.72 24.3913 104.466 24.541 104.199 24.6582C103.939 24.7754 103.672 24.8633 103.398 24.9219C103.132 24.974 102.878 25 102.637 25H95.7617V22.4609H102.617C102.962 22.4609 103.223 22.373 103.398 22.1973C103.574 22.0215 103.662 21.7676 103.662 21.4355C103.63 20.7585 103.288 20.4199 102.637 20.4199H98.7012C98.1413 20.4199 97.666 20.3223 97.2754 20.127C96.8848 19.9316 96.5658 19.6875 96.3184 19.3945C96.0775 19.1016 95.9017 18.7858 95.791 18.4473C95.6868 18.1087 95.6348 17.793 95.6348 17.5C95.6348 16.9336 95.7357 16.4583 95.9375 16.0742C96.1393 15.6836 96.3932 15.3678 96.6992 15.127C97.0052 14.8861 97.3372 14.7135 97.6953 14.6094C98.0534 14.4987 98.3887 14.4434 98.7012 14.4434H104.941V16.9824H98.7207C98.5905 16.9824 98.4863 16.9987 98.4082 17.0312C98.3366 17.0573 98.2812 17.0964 98.2422 17.1484C98.2096 17.194 98.1901 17.2461 98.1836 17.3047C98.1771 17.3568 98.1738 17.4089 98.1738 17.4609C98.1803 17.5651 98.1999 17.6465 98.2324 17.7051C98.265 17.7637 98.304 17.806 98.3496 17.832C98.4017 17.8581 98.457 17.8743 98.5156 17.8809C98.5807 17.8809 98.6426 17.8809 98.7012 17.8809H102.637C103.288 17.8809 103.841 17.998 104.297 18.2324C104.753 18.4668 105.12 18.763 105.4 19.1211C105.68 19.4727 105.882 19.8568 106.006 20.2734C106.136 20.6901 106.201 21.0775 106.201 21.4355ZM117.412 16.9824H112.979V25H110.41V16.9824H107.109V14.4434H110.41V10.9961H112.979V14.4434H117.412V16.9824Z" fill="white"/>
</svg>
