<svg width="72" height="73" viewBox="0 0 72 73" fill="none" xmlns="http://www.w3.org/2000/svg">
<rect width="72" height="73" rx="3" fill="#707070"/>
<path d="M70.5 69.5102C70.5 70.6148 69.6046 71.5102 68.5 71.5102H65.1505V56.6656C65.1505 55.9616 64.9723 55.4301 64.6157 55.0713C64.259 54.6987 63.724 54.5123 63.0108 54.5123H53.3611V49.1293H63.0108C63.5183 49.1293 64.0533 49.1914 64.6157 49.3157C65.1781 49.4261 65.7336 49.6055 66.2822 49.854C66.8446 50.1024 67.3796 50.4268 67.8871 50.8271C68.3945 51.2135 68.8404 51.6897 69.2244 52.2556C69.6085 52.8077 69.9171 53.4496 70.1503 54.1811C70.3834 54.9126 70.5 55.7408 70.5 56.6656V69.5102ZM51.2008 71.5102H45.8513V39.6677H51.2008V71.5102Z" fill="#FF7A00"/>
<path d="M50.3037 36.6035H16.4786V25.7546H50.3037V36.6035ZM55.0771 12.2558H12.199V60.8684H1.5V6.9142C1.5 6.16886 1.63717 5.46493 1.9115 4.80241C2.18583 4.13988 2.55618 3.56017 3.02254 3.06328C3.51635 2.56639 4.09244 2.17992 4.75084 1.90387C5.40923 1.62782 6.12249 1.48979 6.89063 1.48979H55.0771V12.2558Z" fill="black"/>
</svg>
