<svg width="120" height="121" viewBox="0 0 120 121" fill="none" xmlns="http://www.w3.org/2000/svg">
<mask id="path-1-outside-1_267_160" maskUnits="userSpaceOnUse" x="-9.82843" y="-2.71586" width="133.643" height="133.643" fill="black">
<rect fill="white" x="-9.82843" y="-2.71586" width="133.643" height="133.643"/>
<path fill-rule="evenodd" clip-rule="evenodd" d="M96.3727 33.727L28.5576 101.542C23.3321 99.9083 20.6465 95.1538 19.9134 92.8461L87.7232 25.0362C90.8432 27.7803 93.8996 30.9578 96.3727 33.727ZM29.1109 105.481C28.5196 104.481 28.2878 103.326 28.9239 102.129L96.821 34.2315C98.1414 35.7259 99.2756 37.0811 100.137 38.1565L30.8785 107.415C30.2669 106.949 29.5806 106.275 29.1109 105.481ZM19.2646 92.5421C18.3756 92.6722 16.2405 92.3787 13.6782 90.0301L82.6414 21.0668C84.133 22.0597 85.6778 23.2683 87.214 24.5928L19.2646 92.5421ZM12.9498 89.8057L13.1916 89.5639L93.3432 9.41226L97.0195 5.73602C98.4562 4.07698 102.047 1.05101 104.919 2.21953C108.508 3.68017 117.662 11.7706 118.686 15.9869C119.505 19.36 116.747 22.7217 115.265 23.9814L111.832 27.4138L111.589 27.6576L101.045 38.201L100.802 38.4445L31.1951 108.051L30.8017 108.202L3.23862 118.799L2.40538 119.119L2.70745 118.28L12.8221 90.1606L12.9498 89.8057ZM13.3592 90.6636L7.00055 108.341C7.8216 108.774 8.9918 109.524 10.1124 110.514C11.2682 111.535 12.3941 112.83 13.0154 114.317L30.1679 107.722C29.5832 107.233 28.9711 106.587 28.5253 105.833C27.9034 104.782 27.5912 103.489 28.1729 102.135C22.8975 100.403 20.1504 95.6753 19.3181 93.2188C18.167 93.3733 15.9227 92.9528 13.3592 90.6636ZM100.623 37.67L110.924 27.3699C107.546 23.1531 99.9754 14.6378 93.4278 10.2805L83.1343 20.574C89.7137 24.9922 97.2314 33.4429 100.623 37.67ZM93.9212 9.78706C100.501 14.2053 108.018 22.6557 111.41 26.8833L114.788 23.505L114.809 23.4847L114.83 23.467C115.515 22.8846 116.516 21.7945 117.243 20.459C117.971 19.1221 118.381 17.6186 118.026 16.1569C117.804 15.2444 117.113 14.0387 116.068 12.6816C115.035 11.3417 113.707 9.91505 112.291 8.56493C110.876 7.21574 109.385 5.95233 108.028 4.94026C106.661 3.91899 105.47 3.18143 104.654 2.84911C103.509 2.38245 102.133 2.72475 100.76 3.50598C99.4079 4.27599 98.2092 5.39138 97.5294 6.17631L97.5133 6.19499L97.4959 6.2124L93.9212 9.78706Z"/>
</mask>
<path fill-rule="evenodd" clip-rule="evenodd" d="M96.3727 33.727L28.5576 101.542C23.3321 99.9083 20.6465 95.1538 19.9134 92.8461L87.7232 25.0362C90.8432 27.7803 93.8996 30.9578 96.3727 33.727ZM29.1109 105.481C28.5196 104.481 28.2878 103.326 28.9239 102.129L96.821 34.2315C98.1414 35.7259 99.2756 37.0811 100.137 38.1565L30.8785 107.415C30.2669 106.949 29.5806 106.275 29.1109 105.481ZM19.2646 92.5421C18.3756 92.6722 16.2405 92.3787 13.6782 90.0301L82.6414 21.0668C84.133 22.0597 85.6778 23.2683 87.214 24.5928L19.2646 92.5421ZM12.9498 89.8057L13.1916 89.5639L93.3432 9.41226L97.0195 5.73602C98.4562 4.07698 102.047 1.05101 104.919 2.21953C108.508 3.68017 117.662 11.7706 118.686 15.9869C119.505 19.36 116.747 22.7217 115.265 23.9814L111.832 27.4138L111.589 27.6576L101.045 38.201L100.802 38.4445L31.1951 108.051L30.8017 108.202L3.23862 118.799L2.40538 119.119L2.70745 118.28L12.8221 90.1606L12.9498 89.8057ZM13.3592 90.6636L7.00055 108.341C7.8216 108.774 8.9918 109.524 10.1124 110.514C11.2682 111.535 12.3941 112.83 13.0154 114.317L30.1679 107.722C29.5832 107.233 28.9711 106.587 28.5253 105.833C27.9034 104.782 27.5912 103.489 28.1729 102.135C22.8975 100.403 20.1504 95.6753 19.3181 93.2188C18.167 93.3733 15.9227 92.9528 13.3592 90.6636ZM100.623 37.67L110.924 27.3699C107.546 23.1531 99.9754 14.6378 93.4278 10.2805L83.1343 20.574C89.7137 24.9922 97.2314 33.4429 100.623 37.67ZM93.9212 9.78706C100.501 14.2053 108.018 22.6557 111.41 26.8833L114.788 23.505L114.809 23.4847L114.83 23.467C115.515 22.8846 116.516 21.7945 117.243 20.459C117.971 19.1221 118.381 17.6186 118.026 16.1569C117.804 15.2444 117.113 14.0387 116.068 12.6816C115.035 11.3417 113.707 9.91505 112.291 8.56493C110.876 7.21574 109.385 5.95233 108.028 4.94026C106.661 3.91899 105.47 3.18143 104.654 2.84911C103.509 2.38245 102.133 2.72475 100.76 3.50598C99.4079 4.27599 98.2092 5.39138 97.5294 6.17631L97.5133 6.19499L97.4959 6.2124L93.9212 9.78706Z" fill="#FF7900"/>
<path d="M28.5576 101.542L28.2592 102.497L28.8368 102.677L29.2647 102.249L28.5576 101.542ZM96.3727 33.727L97.0798 34.4341L97.7481 33.7658L97.1186 33.0608L96.3727 33.727ZM19.9134 92.8461L19.2063 92.139L18.7762 92.5691L18.9603 93.1488L19.9134 92.8461ZM87.7232 25.0362L88.3836 24.2854L87.6793 23.6659L87.0161 24.3291L87.7232 25.0362ZM28.9239 102.129L28.2168 101.421L28.111 101.527L28.0408 101.659L28.9239 102.129ZM29.1109 105.481L28.2502 105.99L28.2502 105.99L29.1109 105.481ZM96.821 34.2315L97.5703 33.5694L96.866 32.7722L96.1139 33.5244L96.821 34.2315ZM100.137 38.1565L100.844 38.8636L101.477 38.2304L100.917 37.5314L100.137 38.1565ZM30.8785 107.415L30.272 108.21L30.9673 108.74L31.5856 108.122L30.8785 107.415ZM13.6782 90.0301L12.971 89.323L12.2325 90.0616L13.0025 90.7673L13.6782 90.0301ZM19.2646 92.5421L19.4094 93.5315L19.7374 93.4836L19.9717 93.2492L19.2646 92.5421ZM82.6414 21.0668L83.1956 20.2344L82.5136 19.7804L81.9343 20.3597L82.6414 21.0668ZM87.214 24.5928L87.9211 25.2999L88.6824 24.5385L87.867 23.8354L87.214 24.5928ZM12.9498 89.8057L12.2427 89.0986L12.0845 89.2568L12.0088 89.4673L12.9498 89.8057ZM97.0195 5.73602L97.7266 6.44313L97.7519 6.41777L97.7754 6.39066L97.0195 5.73602ZM104.919 2.21953L104.542 3.14576L104.542 3.14576L104.919 2.21953ZM118.686 15.9869L117.714 16.2229L117.714 16.2229L118.686 15.9869ZM115.265 23.9814L114.617 23.2194L114.586 23.2456L114.558 23.2743L115.265 23.9814ZM31.1951 108.051L31.5539 108.984L31.7521 108.908L31.9022 108.758L31.1951 108.051ZM30.8017 108.202L30.4429 107.269L30.4428 107.269L30.8017 108.202ZM3.23862 118.799L3.59742 119.733L3.59747 119.733L3.23862 118.799ZM2.40538 119.119L1.46441 118.781L0.724918 120.837L2.76418 120.053L2.40538 119.119ZM2.70745 118.28L3.64842 118.618L3.64843 118.618L2.70745 118.28ZM12.8221 90.1606L13.7631 90.4991L13.7631 90.4991L12.8221 90.1606ZM7.00055 108.341L6.05957 108.002L5.76549 108.82L6.53394 109.225L7.00055 108.341ZM13.3592 90.6636L14.0252 89.9177L12.9198 88.9306L12.4182 90.3252L13.3592 90.6636ZM10.1124 110.514L9.45038 111.264L9.45038 111.264L10.1124 110.514ZM13.0154 114.317L12.0928 114.702L12.4675 115.599L13.3743 115.25L13.0154 114.317ZM30.1679 107.722L30.5267 108.656L32.1131 108.046L30.8095 106.955L30.1679 107.722ZM28.5253 105.833L29.3861 105.324L29.3861 105.324L28.5253 105.833ZM28.1729 102.135L29.0917 102.53L29.5229 101.526L28.4848 101.185L28.1729 102.135ZM19.3181 93.2188L20.2652 92.8979L20.001 92.1181L19.185 92.2277L19.3181 93.2188ZM110.924 27.3699L111.631 28.077L112.264 27.4438L111.704 26.7448L110.924 27.3699ZM100.623 37.67L99.8435 38.2959L100.542 39.166L101.331 38.3771L100.623 37.67ZM93.4278 10.2805L93.9818 9.44795L93.2999 8.99414L92.7207 9.57335L93.4278 10.2805ZM83.1343 20.574L82.4271 19.8669L81.5676 20.7265L82.5768 21.4042L83.1343 20.574ZM111.41 26.8833L110.63 27.509L111.328 28.3793L112.117 27.5904L111.41 26.8833ZM93.9212 9.78706L93.2141 9.07995L92.3545 9.93955L93.3637 10.6172L93.9212 9.78706ZM114.809 23.4847L114.163 22.7211L114.131 22.7481L114.102 22.7776L114.809 23.4847ZM114.83 23.467L115.475 24.2305L115.477 24.2289L114.83 23.467ZM117.243 20.459L118.122 20.9372L118.122 20.937L117.243 20.459ZM118.026 16.1569L118.998 15.9209L118.998 15.9208L118.026 16.1569ZM116.068 12.6816L115.275 13.2919L115.275 13.2919L116.068 12.6816ZM112.291 8.56493L112.982 7.84122L112.982 7.8412L112.291 8.56493ZM108.028 4.94026L107.43 5.74151L107.43 5.74176L108.028 4.94026ZM104.654 2.84911L104.277 3.77525L104.277 3.77526L104.654 2.84911ZM100.76 3.50598L100.266 2.63694L100.266 2.63694L100.76 3.50598ZM97.5294 6.17631L96.7735 5.52165L96.7731 5.52214L97.5294 6.17631ZM97.5133 6.19499L98.2204 6.90209L98.246 6.87651L98.2696 6.84916L97.5133 6.19499ZM29.2647 102.249L97.0798 34.4341L95.6656 33.0199L27.8505 100.835L29.2647 102.249ZM18.9603 93.1488C19.7491 95.6316 22.6072 100.729 28.2592 102.497L28.856 100.588C24.057 99.0872 21.544 94.6759 20.8665 92.5433L18.9603 93.1488ZM87.0161 24.3291L19.2063 92.139L20.6205 93.5532L88.4303 25.7434L87.0161 24.3291ZM97.1186 33.0608C94.6291 30.2733 91.5436 27.0645 88.3836 24.2854L87.0628 25.7871C90.1429 28.4961 93.1702 31.6423 95.6269 34.3931L97.1186 33.0608ZM28.0408 101.659C27.1943 103.252 27.5391 104.788 28.2502 105.99L29.9717 104.972C29.5 104.174 29.3813 103.399 29.807 102.598L28.0408 101.659ZM96.1139 33.5244L28.2168 101.421L29.631 102.836L97.5281 34.9386L96.1139 33.5244ZM100.917 37.5314C100.045 36.4425 98.9007 35.075 97.5703 33.5694L96.0716 34.8936C97.3821 36.3768 98.5058 37.7196 99.3564 38.7816L100.917 37.5314ZM31.5856 108.122L100.844 38.8636L99.4298 37.4494L30.1714 106.708L31.5856 108.122ZM28.2502 105.99C28.8037 106.926 29.591 107.691 30.272 108.21L31.4849 106.62C30.9428 106.206 30.3576 105.625 29.9716 104.972L28.2502 105.99ZM13.0025 90.7673C15.729 93.2663 18.1535 93.7153 19.4094 93.5315L19.1199 91.5526C18.5978 91.629 16.752 91.491 14.3538 89.2929L13.0025 90.7673ZM81.9343 20.3597L12.971 89.323L14.3853 90.7372L83.3486 21.7739L81.9343 20.3597ZM87.867 23.8354C86.3095 22.4925 84.7311 21.2566 83.1956 20.2344L82.0873 21.8992C83.5349 22.8629 85.0462 24.0441 86.561 25.3501L87.867 23.8354ZM19.9717 93.2492L87.9211 25.2999L86.5068 23.8857L18.5575 91.835L19.9717 93.2492ZM12.4845 88.8568L12.2427 89.0986L13.6569 90.5128L13.8987 90.271L12.4845 88.8568ZM92.6361 8.70515L12.4845 88.8568L13.8987 90.271L94.0503 10.1194L92.6361 8.70515ZM96.3124 5.02891L92.6361 8.70515L94.0503 10.1194L97.7266 6.44313L96.3124 5.02891ZM105.296 1.2933C103.429 0.533756 101.462 1.17998 99.9363 2.04843C98.3795 2.93486 97.0376 4.18754 96.2635 5.08138L97.7754 6.39066C98.4381 5.62546 99.6102 4.53563 100.926 3.78645C102.273 3.01929 103.537 2.73679 104.542 3.14576L105.296 1.2933ZM119.658 15.751C119.351 14.4855 118.478 13.0522 117.4 11.6522C116.302 10.2265 114.912 8.73622 113.454 7.34612C111.995 5.95459 110.452 4.64834 109.038 3.59273C107.642 2.55013 106.314 1.70792 105.296 1.2933L104.542 3.14576C105.317 3.46146 106.48 4.17828 107.842 5.19521C109.186 6.19911 110.668 7.45284 112.074 8.79353C113.482 10.1357 114.797 11.5498 115.815 12.8725C116.854 14.221 117.51 15.3802 117.714 16.2229L119.658 15.751ZM115.912 24.7433C116.734 24.0451 117.878 22.7965 118.717 21.2546C119.553 19.7171 120.148 17.7704 119.658 15.7509L117.714 16.2229C118.043 17.5765 117.668 18.9972 116.96 20.2987C116.254 21.5959 115.278 22.658 114.617 23.2194L115.912 24.7433ZM112.539 28.1209L115.972 24.6885L114.558 23.2743L111.125 26.7067L112.539 28.1209ZM112.296 28.3647L112.539 28.1209L111.125 26.7067L110.881 26.9505L112.296 28.3647ZM101.752 38.9081L112.296 28.3647L110.881 26.9505L100.338 37.4939L101.752 38.9081ZM101.509 39.1516L101.752 38.9081L100.338 37.4939L100.095 37.7374L101.509 39.1516ZM31.9022 108.758L101.509 39.1516L100.095 37.7374L30.488 107.344L31.9022 108.758ZM31.1605 109.136L31.5539 108.984L30.8363 107.118L30.4429 107.269L31.1605 109.136ZM3.59747 119.733L31.1605 109.136L30.4428 107.269L2.87977 117.866L3.59747 119.733ZM2.76418 120.053L3.59742 119.733L2.87982 117.866L2.04658 118.186L2.76418 120.053ZM1.76648 117.941L1.46441 118.781L3.34635 119.458L3.64842 118.618L1.76648 117.941ZM11.8811 89.8222L1.76648 117.941L3.64843 118.618L13.7631 90.4991L11.8811 89.8222ZM12.0088 89.4673L11.8811 89.8222L13.7631 90.4991L13.8908 90.1442L12.0088 89.4673ZM7.94152 108.679L14.3001 91.0021L12.4182 90.3252L6.05957 108.002L7.94152 108.679ZM10.7743 109.765C9.58897 108.718 8.35195 107.923 7.46715 107.456L6.53394 109.225C7.29124 109.625 8.39462 110.331 9.45038 111.264L10.7743 109.765ZM13.9381 113.931C13.2362 112.252 11.9901 110.838 10.7743 109.765L9.45038 111.264C10.5463 112.231 11.5521 113.409 12.0928 114.702L13.9381 113.931ZM29.809 106.789L12.6566 113.383L13.3743 115.25L30.5267 108.656L29.809 106.789ZM27.6645 106.342C28.1829 107.219 28.8797 107.948 29.5263 108.489L30.8095 106.955C30.2867 106.518 29.7594 105.956 29.3861 105.324L27.6645 106.342ZM27.254 101.74C26.5089 103.475 26.9356 105.11 27.6645 106.342L29.3861 105.324C28.8713 104.454 28.6735 103.503 29.0917 102.53L27.254 101.74ZM18.371 93.5396C19.2599 96.1635 22.1761 101.218 27.8609 103.085L28.4848 101.185C23.6188 99.5871 21.0408 95.1872 20.2652 92.8979L18.371 93.5396ZM12.6931 91.4095C15.4164 93.8414 17.9416 94.4125 19.4512 94.2099L19.185 92.2277C18.3924 92.3341 16.4289 92.0642 14.0252 89.9177L12.6931 91.4095ZM110.216 26.6628L99.9163 36.9629L101.331 38.3771L111.631 28.077L110.216 26.6628ZM92.8738 11.113C99.2851 15.3796 106.776 23.7909 110.143 27.995L111.704 26.7448C108.317 22.5152 100.666 13.896 93.9818 9.44795L92.8738 11.113ZM83.8414 21.2811L94.1349 10.9876L92.7207 9.57335L82.4271 19.8669L83.8414 21.2811ZM101.403 37.0442C98.0005 32.8036 90.4044 24.2515 83.6917 19.7438L82.5768 21.4042C89.023 25.733 96.4622 34.0821 99.8435 38.2959L101.403 37.0442ZM112.19 26.2575C108.788 22.0164 101.191 13.4645 94.4787 8.95687L93.3637 10.6172C99.81 14.946 107.249 23.295 110.63 27.509L112.19 26.2575ZM114.081 22.7979L110.703 26.1762L112.117 27.5904L115.496 24.2121L114.081 22.7979ZM114.102 22.7776L114.081 22.7979L115.496 24.2121L115.516 24.1918L114.102 22.7776ZM114.184 22.7034L114.163 22.7211L115.454 24.2483L115.475 24.2305L114.184 22.7034ZM116.365 19.9809C115.704 21.1942 114.787 22.1911 114.182 22.705L115.477 24.2289C116.243 23.5781 117.328 22.3949 118.122 20.9372L116.365 19.9809ZM117.054 16.3929C117.328 17.5221 117.028 18.7627 116.365 19.981L118.122 20.937C118.914 19.4815 119.433 17.7152 118.998 15.9209L117.054 16.3929ZM115.275 13.2919C116.301 14.6228 116.884 15.6917 117.054 16.393L118.998 15.9208C118.725 14.7972 117.926 13.4546 116.86 12.0713L115.275 13.2919ZM111.601 9.28865C112.992 10.6149 114.283 12.0035 115.275 13.2919L116.86 12.0713C115.788 10.6799 114.423 9.21522 112.982 7.84122L111.601 9.28865ZM107.43 5.74176C108.752 6.72757 110.213 7.96455 111.601 9.28866L112.982 7.8412C111.54 6.46692 110.018 5.17709 108.626 4.13876L107.43 5.74176ZM104.277 3.77526C104.972 4.05815 106.08 4.73312 107.43 5.74151L108.627 4.13901C107.242 3.10485 105.969 2.3047 105.031 1.92297L104.277 3.77526ZM101.255 4.37501C102.537 3.64505 103.561 3.48375 104.277 3.77525L105.032 1.92298C103.456 1.28115 101.728 1.80444 100.266 2.63694L101.255 4.37501ZM98.2853 6.83097C98.9095 6.1103 100.023 5.07637 101.255 4.37502L100.266 2.63694C98.7925 3.47561 97.5089 4.67247 96.7735 5.52165L98.2853 6.83097ZM98.2696 6.84916L98.2858 6.83048L96.7731 5.52214L96.7569 5.54082L98.2696 6.84916ZM98.203 6.91951L98.2204 6.90209L96.8062 5.48788L96.7887 5.50529L98.203 6.91951ZM94.6283 10.4942L98.203 6.91951L96.7887 5.50529L93.2141 9.07995L94.6283 10.4942Z" fill="#FF7900" mask="url(#path-1-outside-1_267_160)"/>
</svg>
