<svg width="196" height="224" viewBox="0 0 196 224" fill="none" xmlns="http://www.w3.org/2000/svg">
<path fill-rule="evenodd" clip-rule="evenodd" d="M122.327 5.67344C129.277 9.16577 142.647 21.3865 141.739 42.7401C141.082 58.2061 131.921 68.4507 123.662 74.1089C153.5 80.7065 169.859 101.521 175.942 113.149C177.492 116.112 178.707 119.84 179.653 123.783C180.813 123.237 182.088 122.405 183.065 121.306C183.091 121.278 183.115 121.25 183.138 121.223C181.818 120.489 180.78 119.585 180.165 118.764C180.145 118.738 180.124 118.711 180.103 118.682L180.02 118.575L180.019 118.572C179.815 118.306 179.558 117.97 179.363 117.643C179.115 117.226 178.832 116.612 178.927 115.894C179.03 115.127 179.519 114.54 180.18 114.101C180.826 113.672 181.737 113.31 182.942 112.985C184.442 112.581 186.155 113.356 186.599 115.011C187.124 116.965 186.947 118.69 186.359 120.165L186.411 120.179L186.443 120.188C188.568 120.754 191.131 120.638 193.709 118.851C194.212 118.503 194.902 118.628 195.249 119.131C195.598 119.635 195.472 120.326 194.969 120.674C191.789 122.879 188.539 123.041 185.874 122.332C185.66 122.274 185.448 122.211 185.241 122.143C185.075 122.365 184.901 122.577 184.719 122.781C183.378 124.29 181.642 125.351 180.152 125.99C180.527 127.763 180.853 129.558 181.134 131.329C182.171 137.864 182.618 144.179 182.712 148.013V148.026V148.04C182.712 155.428 178.721 173.354 163.001 187.7C168.588 200.894 170.393 209.034 170.393 214.158C170.393 216.784 169.92 218.672 169.191 220.049C168.456 221.439 167.5 222.236 166.671 222.734C166.065 223.097 165.348 223.193 164.636 223.143C163.917 223.093 163.121 222.891 162.272 222.567C160.576 221.92 158.529 220.73 156.231 218.994C151.767 215.625 146.229 210.102 140.305 202.134C139.408 202.591 138.486 203.025 137.54 203.436C138.408 206.124 139.344 209.831 139.387 213.313C139.435 217.145 138.385 221.149 134.415 222.806L134.246 222.877L134.063 222.889C130.248 223.144 126.484 220.675 123.471 217.835C120.405 214.946 117.854 211.423 116.43 209.046L116.427 209.043C112.981 209.546 109.507 209.906 106.093 210.15C94.1567 211.002 82.8377 210.45 75.7954 209.649C73.7165 212.334 70.5425 215.988 67.3058 218.807C65.5883 220.303 63.8027 221.609 62.1162 222.398C60.4663 223.168 58.6547 223.56 57.0867 222.775C53.6803 221.068 53.1508 217.644 53.2918 214.183C53.3534 212.67 53.5479 211.04 53.7426 209.408C53.7735 209.149 53.8044 208.89 53.8348 208.632C54.0225 207.035 54.193 205.432 54.2442 203.859C53.1515 203.636 51.8871 203.281 50.4895 202.799C47.7694 206.519 43.4479 211.82 39.0074 216.043C36.7246 218.215 34.3712 220.14 32.1575 221.413C29.9928 222.658 27.72 223.421 25.7183 222.849C23.4724 222.206 22.5614 219.917 22.2477 217.494C21.9224 214.982 22.1522 211.78 22.6718 208.403C23.6662 201.941 25.7717 194.546 27.4956 189.436C26.3514 188.497 25.2161 187.516 24.0982 186.491C12.5336 175.893 2.73119 160.609 4.4335 141.288L4.43445 141.277L4.43563 141.267C5.51489 131.269 8.20476 122.574 11.9931 115.042C11.9117 114.968 11.8398 114.882 11.7811 114.782C8.16564 108.655 5.90514 104.14 4.34622 99.3856C2.78852 94.6349 1.94795 89.6953 1.11522 82.746L0.973145 81.5603L2.16439 81.5061C7.35043 81.27 12.9253 83.4724 17.6983 86.197C22.0066 88.6563 25.7852 91.6128 28.2241 93.8368C30.3179 91.9378 32.4843 90.1792 34.6968 88.5536C49.098 77.9719 65.4631 73.0122 76.5173 71.6343C68.6745 64.9094 64.4746 56.6587 63.1697 52.4517C60.3306 43.5378 59.0413 22.3539 76.8534 9.0903C94.5849 -4.11338 114.518 1.29837 122.327 5.67344ZM116.291 78.1632C117.749 77.5597 119.394 76.7493 121.126 75.7253C121.258 75.8288 121.415 75.9038 121.591 75.9389C151.617 81.9525 167.991 102.729 173.979 114.178C175.547 117.175 176.779 121.091 177.729 125.282C177.727 125.407 177.744 125.533 177.785 125.657C177.795 125.686 177.805 125.714 177.817 125.74C177.825 125.761 177.835 125.781 177.844 125.8C178.268 127.728 178.634 129.707 178.947 131.678C179.966 138.099 180.405 144.308 180.497 148.053C180.492 154.998 176.605 172.631 160.937 186.577L160.34 187.109L160.655 187.843C166.451 201.386 168.178 209.397 168.178 214.158C168.178 216.523 167.752 218.032 167.233 219.011C166.724 219.976 166.087 220.497 165.533 220.832C165.446 220.883 165.229 220.961 164.788 220.93C164.354 220.9 163.78 220.769 163.062 220.495C161.627 219.947 159.764 218.885 157.563 217.223C153.171 213.908 147.569 208.31 141.525 200.057L140.957 199.281L140.11 199.735C130.793 204.726 118.106 207.068 105.936 207.937C93.7889 208.806 82.2879 208.198 75.4313 207.374L74.801 207.299L74.4172 207.805C72.4152 210.448 69.1445 214.266 65.8523 217.134C64.2016 218.572 62.596 219.726 61.1798 220.387C59.7267 221.067 58.7238 221.115 58.0771 220.791C55.9468 219.724 55.3689 217.604 55.5046 214.273C55.5624 212.854 55.745 211.322 55.9405 209.682C55.9716 209.421 56.0031 209.157 56.0343 208.891C56.2594 206.975 56.4745 204.942 56.4745 202.931V201.969L55.5237 201.833C52.7996 201.444 48.1548 199.811 42.7267 196.935C37.3233 194.07 31.2258 190.017 25.5935 184.855C14.3215 174.525 5.02355 159.873 6.63865 141.495C8.80894 121.416 17.6467 106.773 28.7944 96.325C28.8814 96.2742 28.9629 96.2107 29.0361 96.1343C29.079 96.0896 29.1174 96.0423 29.1513 95.9927C31.3595 93.9495 33.656 92.069 36.0069 90.3417C50.409 79.7593 66.8487 74.9372 77.575 73.7426H79.1727C80.9512 75.047 82.8876 76.2614 84.9886 77.3369C78.7163 78.4453 73.6287 80.1279 70.4085 81.6059C69.8525 81.8611 69.6085 82.5192 69.8633 83.076C70.118 83.6328 70.7753 83.8772 71.3313 83.622C79.9968 79.6447 103.139 74.0317 125.805 83.6352C126.369 83.8738 127.019 83.61 127.257 83.046C127.495 82.482 127.232 81.8313 126.668 81.5927C123.202 80.1241 119.726 78.9996 116.291 78.1632ZM88.5291 76.6319L88.4428 76.8045C95.4452 75.8815 103.619 75.7435 112.174 77.291L112.126 77.1025L114.289 76.5611C122.394 73.6549 138.669 62.8145 139.527 42.6459C140.39 22.3287 127.658 10.8223 121.313 7.64526L121.289 7.63345L121.266 7.62055C113.925 3.49621 94.9751 -1.64011 78.1749 10.87C61.4406 23.3311 62.5842 43.3201 65.2808 51.7817L65.2836 51.7902C66.8797 56.9402 73.3619 69.0376 86.3144 75.5231L88.5291 76.6319ZM111.833 62.6343L110.725 60.7137L109.67 58.8831C107.885 59.6376 106.114 60.1531 104.359 60.4109L104.355 60.4115C101.462 60.8317 98.7159 60.4483 96.1917 59.2072L96.1777 59.2003C93.6052 57.913 91.5136 55.7174 89.8345 52.8312L88.7155 50.9074L90.6409 49.7941L94.8789 47.3439C93.7549 47.3683 92.6643 47.2791 91.6104 47.0679L91.5958 47.065C88.4682 46.4162 86.0674 44.4776 84.3988 41.5601C83.0271 39.2049 82.4275 36.6912 82.6894 34.0745L82.6896 34.0718C82.9503 31.4993 83.9418 29.093 85.5727 26.8716L85.5753 26.8681C86.5602 25.5318 87.745 24.321 89.1149 23.2299L88.0752 21.4269L86.9678 19.5061L88.8859 18.3972L91.3991 16.9441L93.3171 15.8352L94.4245 17.7559L95.468 19.566C97.0954 18.9298 98.7199 18.5248 100.338 18.3727C103.046 18.118 105.586 18.546 107.89 19.7201C110.211 20.8851 112.057 22.7078 113.442 25.0819L114.564 27.0067L112.637 28.1211L107.395 31.1518C107.89 31.0783 108.376 31.0245 108.853 30.991C110.64 30.8657 112.326 31.0017 113.879 31.4494C115.413 31.8832 116.795 32.6006 117.995 33.6078C119.174 34.5823 120.165 35.7782 120.981 37.1655L120.987 37.1785L120.995 37.1915C122.363 39.5909 123.002 42.0934 122.755 44.6482C122.511 47.1636 121.477 49.4935 119.784 51.6189C118.756 52.9135 117.497 54.1116 116.024 55.2211L117.075 57.0427L118.182 58.9635L116.265 60.0724L113.751 61.5254L111.833 62.6343ZM114.196 56.4862L114.05 56.231L113.088 54.5635C113.736 54.1477 114.342 53.7215 114.908 53.2847C116.157 52.32 117.205 51.304 118.052 50.237C119.521 48.3915 120.354 46.4572 120.55 44.4342C120.746 42.4112 120.253 40.3634 119.072 38.2908C118.372 37.0998 117.54 36.1069 116.578 35.3126C115.627 34.5124 114.525 33.9357 113.271 33.5823C112.013 33.2186 110.592 33.0923 109.008 33.2034C107.485 33.3102 105.794 33.6594 103.934 34.2509C103.859 34.2748 103.783 34.2991 103.708 34.3238L101.779 34.9479L100.646 32.9836L99.7485 31.4261L98.6159 29.4616C99.4409 29.1562 100.185 29.0638 100.847 29.1846C100.91 29.1957 100.973 29.2083 101.035 29.2225C101.966 29.4354 102.747 29.9993 103.376 30.914L109.611 27.3093L111.53 26.2004C111.141 25.5346 110.716 24.9268 110.254 24.377C109.292 23.2336 108.172 22.3413 106.891 21.6999C104.999 20.7338 102.884 20.3609 100.545 20.5808C99.2563 20.702 97.9378 21.0122 96.5897 21.5116C95.9159 21.7612 95.2345 22.058 94.5459 22.4021L93.6138 20.7856L93.4366 20.4782L92.5065 18.8648L91.9112 19.209L90.5885 19.9737L89.9932 20.3179L90.9219 21.9286L91.1006 22.2386L92.031 23.8524C91.3926 24.2733 90.7942 24.714 90.2358 25.1744C89.1149 26.0987 88.1553 27.1024 87.3571 28.1852C85.9303 30.1288 85.1088 32.1655 84.893 34.2957C84.6814 36.4096 85.1559 38.4611 86.3163 40.4502C87.7217 42.9116 89.6313 44.3925 92.0449 44.8932C94.4629 45.3777 97.2354 45.1184 100.362 44.1154L101.032 43.8998L103.188 43.2051L104.321 45.17L105.394 47.031L106.514 48.9741C105.865 49.2438 105.235 49.4151 104.624 49.4881C104.505 49.5017 104.387 49.5115 104.27 49.5173C103.436 49.5591 102.665 49.4017 101.958 49.0449C101.151 48.6382 100.445 47.9689 99.8397 47.0366L93.6663 50.606L91.7483 51.7149C92.1376 52.3842 92.5453 53.0022 92.9712 53.5687C94.2144 55.2227 95.6133 56.4386 97.1677 57.2164C99.2589 58.2446 101.549 58.5779 104.038 58.2166C105.504 58.0013 107.009 57.5777 108.553 56.946C109.219 56.6738 109.892 56.3628 110.573 56.0131L111.536 57.684L111.681 57.936L112.644 59.6048L113.239 59.2606L114.561 58.4959L115.157 58.1516L114.196 56.4862ZM96.4267 35.9124C96.569 35.9435 96.7195 35.9663 96.8779 35.9808C97.3609 36.0152 97.9292 35.9732 98.5828 35.8546C98.6904 35.8349 98.8005 35.8133 98.9131 35.7894L98.4144 34.9245L97.7322 33.7412L97.2212 32.8548L96.0938 30.8995C95.7756 31.1551 95.5097 31.4145 95.2961 31.6776C94.9779 32.0616 94.7606 32.4426 94.644 32.8201C94.6016 32.9574 94.5724 33.0941 94.5567 33.2304C94.4976 33.7422 94.5956 34.2311 94.8508 34.6974C95.0486 35.0877 95.3126 35.3921 95.6428 35.6105C95.8688 35.7471 96.1301 35.8478 96.4267 35.9124ZM106.068 42.3873L107.245 44.4288L107.883 45.5357L109.012 47.494C109.323 47.2401 109.588 46.9805 109.81 46.7152C110.114 46.3497 110.34 45.9837 110.487 45.6171C110.573 45.4025 110.632 45.1877 110.664 44.9728C110.751 44.3907 110.652 43.8409 110.367 43.3234C110.08 42.8485 109.68 42.5206 109.167 42.3397C108.972 42.2642 108.751 42.2111 108.506 42.1806C108.112 42.1315 107.653 42.1408 107.129 42.2082C106.808 42.2453 106.454 42.3051 106.068 42.3873ZM102.81 46.9847C102.494 46.7947 102.151 46.4848 101.8 45.9819L102.164 45.8646L102.81 46.9847ZM29.3402 190.906C27.6932 195.897 25.7813 202.759 24.8607 208.741C24.3514 212.05 24.159 215.009 24.444 217.209C24.7404 219.498 25.4719 220.471 26.3267 220.716C27.4255 221.03 29.01 220.665 31.0544 219.49C33.0497 218.342 35.2571 216.552 37.4822 214.436C41.6033 210.516 45.6504 205.606 48.3304 201.995C46.2916 201.181 44.0475 200.144 41.6907 198.895C37.7873 196.826 33.534 194.155 29.3402 190.906ZM26.5982 95.3542C21.4984 100.252 16.8897 106.026 13.1788 112.786C9.89775 107.162 7.86492 103.008 6.45037 98.6937C5.05306 94.4322 4.24434 89.9705 3.46484 83.7156C7.71085 83.8592 12.3567 85.7007 16.6016 88.1238C20.676 90.4496 24.2645 93.2437 26.5982 95.3542ZM184.308 119.335C184.732 118.259 184.843 117.016 184.46 115.586C184.374 115.266 183.992 114.998 183.518 115.126C182.406 115.425 181.761 115.713 181.405 115.949C181.219 116.073 181.148 116.157 181.125 116.195C181.131 116.227 181.155 116.321 181.267 116.508C181.389 116.714 181.537 116.909 181.725 117.155L181.772 117.216L181.851 117.319L181.871 117.347L181.937 117.434C182.363 118.004 183.195 118.732 184.308 119.335ZM181.115 116.216C181.114 116.216 181.115 116.213 181.119 116.204L181.118 116.208C181.117 116.212 181.116 116.214 181.116 116.215C181.115 116.216 181.115 116.216 181.115 116.216ZM64.523 106.056C67.2401 102.791 72.0407 97.9569 77.5645 94.1147C82.922 90.3882 88.7548 87.7393 93.9461 88.0956C100.575 102.491 96.7098 118.192 85.1954 126.054C84.69 126.399 84.5597 127.089 84.9043 127.595C85.2488 128.101 85.9377 128.231 86.443 127.886C99.1393 119.218 103.076 101.961 95.6757 86.5685L95.411 86.018L94.8049 85.9479C88.6288 85.2342 81.974 88.3474 76.301 92.2932C70.5852 96.269 65.6413 101.248 62.8216 104.637C62.4301 105.107 62.4935 105.806 62.9634 106.198C63.4332 106.591 64.1315 106.527 64.523 106.056ZM118.803 208.671C120.204 210.867 122.416 213.795 124.989 216.22C127.864 218.93 130.949 220.783 133.732 220.685C136.279 219.525 137.215 216.825 137.172 213.341C137.134 210.238 136.304 206.851 135.485 204.282C130.357 206.281 124.649 207.696 118.803 208.671ZM57.0282 135.287C59.1687 135.287 60.9039 133.549 60.9039 131.406C60.9039 129.262 59.1687 127.525 57.0282 127.525C54.8877 127.525 53.1525 129.262 53.1525 131.406C53.1525 133.549 54.8877 135.287 57.0282 135.287ZM48.1695 155.247C49.3927 155.247 50.3842 154.255 50.3842 153.03C50.3842 151.805 49.3927 150.812 48.1695 150.812C46.9463 150.812 45.9548 151.805 45.9548 153.03C45.9548 154.255 46.9463 155.247 48.1695 155.247ZM36.5424 153.03C36.5424 154.255 35.5508 155.247 34.3277 155.247C33.1045 155.247 32.113 154.255 32.113 153.03C32.113 151.805 33.1045 150.812 34.3277 150.812C35.5508 150.812 36.5424 151.805 36.5424 153.03ZM29.8983 131.406C29.8983 133.549 28.1631 135.287 26.0226 135.287C23.8821 135.287 22.1469 133.549 22.1469 131.406C22.1469 129.262 23.8821 127.525 26.0226 127.525C28.1631 127.525 29.8983 129.262 29.8983 131.406ZM58.6893 152.475C58.6893 159.707 51.228 166.337 40.9717 166.337C30.7155 166.337 23.2542 159.707 23.2542 152.475C23.2542 145.244 30.7155 138.614 40.9717 138.614C51.228 138.614 58.6893 145.244 58.6893 152.475ZM60.9039 152.475C60.9039 161.355 51.98 168.554 40.9717 168.554C29.9635 168.554 21.0395 161.355 21.0395 152.475C21.0395 143.595 29.9635 136.396 40.9717 136.396C51.98 136.396 60.9039 143.595 60.9039 152.475Z" fill="#FF7A00"/>
</svg>
