<svg width="203" height="224" viewBox="0 0 203 224" fill="none" xmlns="http://www.w3.org/2000/svg">
<path fill-rule="evenodd" clip-rule="evenodd" d="M3.75492 4.8192L3.75491 4.81921C2.33217 6.86368 0.288192 9.80085 0.0394136 15.0814C-0.226881 20.7337 1.5581 28.9686 8.01115 41.6957C8.40251 42.4675 9.30892 43.39 10.4262 44.3608C11.5842 45.367 13.0998 46.5334 14.8563 47.7956C18.372 50.3218 22.9077 53.2704 27.6052 56.1476C32.3045 59.0258 37.179 61.8406 41.3764 64.0989C42.624 64.7702 43.8181 65.3958 44.9342 65.9609C44.0646 65.7317 43.1072 65.454 42.0588 65.1206C36.6868 63.4123 28.9737 60.2586 18.5051 54.7538L17.2335 56.2483C23.0923 63.624 28.008 68.9031 35.9755 72.6045C43.1191 75.9231 52.6448 77.9413 67.3917 79.2153C65.4914 79.5435 63.1791 79.7464 60.5063 79.7997C54.8975 79.9114 47.7656 79.3628 39.6467 77.9749L38.8465 79.7399C50.4488 88.6533 60.2662 95.4085 74.8615 101.405C80.8667 103.872 88.8761 104.294 96.345 103.867C99.6634 103.678 102.903 103.319 105.852 102.885C101.771 104.343 97.0471 105.676 92.7821 106.086L92.6252 108.04C94.4405 108.481 96.0179 108.869 97.4127 109.213L97.4147 109.214L97.4148 109.214C102.289 110.415 104.934 111.067 107.709 111.473C110.856 111.934 114.188 112.084 121.154 112.395C122.098 112.438 123.11 112.483 124.197 112.532C133.438 112.953 139.765 111.54 143.866 109.153C148.005 106.744 149.837 103.358 150.04 100.044L150.043 99.9963L150.041 99.9489C150.019 99.3209 149.783 98.4245 149.524 97.6906C164.45 98.623 182.14 97.6375 189.799 96.9534L190.252 96.913L190.523 96.5521C190.776 96.215 191.263 95.6803 191.85 95.2376C192.303 94.8968 192.741 94.6668 193.127 94.5689C193.294 94.5555 193.426 94.5439 193.522 94.5343C193.568 94.5297 193.611 94.5249 193.65 94.52C193.663 94.5182 193.68 94.516 193.697 94.5133C193.704 94.5122 193.711 94.5112 193.718 94.51L193.719 94.5097C193.729 94.5081 193.762 94.5027 193.805 94.4921C193.825 94.4871 193.848 94.4808 193.872 94.4732C193.897 94.4652 193.955 94.4433 193.989 94.4284C194.043 94.4022 194.183 94.3136 194.264 94.2452C194.4 94.0887 194.579 93.5881 194.548 93.261C194.444 93.0173 194.173 92.7208 194.054 92.6473C193.893 92.5621 193.742 92.5428 193.735 92.5419L193.734 92.5419C193.693 92.5354 193.659 92.5327 193.642 92.5315C193.583 92.5274 193.523 92.5281 193.493 92.5285C193.271 92.5316 193.052 92.5566 192.839 92.5993C192.729 92.6077 192.605 92.617 192.467 92.627C191.626 92.6878 190.3 92.7724 188.615 92.8628C185.244 93.0436 180.445 93.2475 175.231 93.3329C170.014 93.4184 164.393 93.3851 159.373 93.0935C154.618 92.8172 150.488 92.313 147.752 91.4946C147.182 89.7982 145.872 88.018 144.233 86.2795C142.39 84.3254 140.021 82.3122 137.488 80.3878C132.419 76.5376 126.603 72.9748 122.789 70.8665L121.621 72.4794C124.103 74.6561 127.641 77.9082 130.204 80.5987C131.098 81.5377 131.849 82.3824 132.392 83.0752C131.775 82.683 131.032 82.1508 130.183 81.4982C128.218 79.9878 125.763 77.8901 123.144 75.5463C117.909 70.862 112.072 65.2441 108.296 61.5L106.74 62.7571C106.725 62.7346 106.661 62.6374 106.628 62.4826C106.591 62.3078 106.586 61.9798 106.836 61.6867C107.054 61.4301 107.323 61.3778 107.409 61.3656C107.464 61.3578 107.506 61.3576 107.529 61.3582C107.554 61.3588 107.569 61.3608 107.573 61.3613L107.573 61.3612C107.567 61.3601 107.501 61.3475 107.346 61.2943C107.191 61.2411 106.979 61.1583 106.698 61.0357C105.562 60.5414 103.471 59.4783 99.8474 57.4145L98.6085 58.9639C101.442 61.9035 103.231 64.6853 104.331 66.8201C102.469 65.1514 99.9339 62.9342 97.0349 60.4771C90.9981 55.3606 83.3562 49.1801 76.921 44.7441L74.2783 42.9224L75.3967 45.9106C77.2048 50.7413 78.2344 54.4487 78.7884 57.1084C78.879 57.5435 78.9565 57.9486 79.0224 58.3243L65.1751 38.1632L65.061 37.9971L64.8901 37.8884C59.1642 34.2476 45.1585 23.8321 35.1091 11.4246C28.6257 3.4198 21.7386 0.42938 16.0054 0.0555379C13.152 -0.13052 10.6038 0.333855 8.56432 1.13359C6.54698 1.92463 4.95091 3.07571 4.09332 4.33016C3.98566 4.48763 3.87241 4.65037 3.75492 4.8192ZM147.751 95.5756C147.821 95.5744 147.889 95.5801 147.951 95.5906C162.779 96.687 181.053 95.7172 189.203 95.012C189.259 94.9465 189.318 94.8791 189.381 94.8104C189.164 94.8225 188.94 94.8348 188.709 94.8471C185.319 95.029 180.495 95.234 175.25 95.3199C170.007 95.4059 164.33 95.373 159.24 95.0773C154.262 94.7881 149.75 94.2434 146.753 93.2713C138.916 93.116 119.029 90.6322 100.391 81.8582C83.6797 73.9907 65.813 64.8787 48.2453 48.9505C64.6932 65.6864 82.1051 76.0636 90.7873 79.8448C96.536 82.1006 106.133 85.5814 116.241 88.6926C126.377 91.8122 136.955 94.5376 144.675 95.3077C145.68 95.4079 146.706 95.4969 147.751 95.5756ZM101.268 80.0632C118.6 88.2227 137.065 90.8494 145.459 91.2388C144.912 90.1683 143.995 88.9545 142.755 87.6395C141.016 85.795 138.741 83.8558 136.253 81.9661C134.276 80.4646 132.18 79.0051 130.136 77.6611C130.673 78.1963 131.19 78.7232 131.675 79.2316C132.973 80.5945 134.087 81.8781 134.699 82.8468C134.855 83.0939 134.993 83.3426 135.094 83.5838C135.19 83.8119 135.283 84.1041 135.279 84.4181C135.274 84.7682 135.141 85.1895 134.747 85.4819C134.403 85.7367 134.01 85.7772 133.735 85.7719C133.367 85.7649 133.001 85.6441 132.689 85.5122C132.36 85.3723 131.999 85.179 131.619 84.9501C130.859 84.4917 129.949 83.8457 128.939 83.0696C126.916 81.5145 124.418 79.3786 121.786 77.0232C116.712 72.483 111.088 67.0813 107.293 63.3312L107.288 63.3305C106.94 63.2838 106.464 63.1117 105.875 62.8552C105.308 62.6083 104.546 62.2425 103.538 61.7197C104.908 63.6144 105.873 65.3399 106.541 66.747C107.106 67.9375 107.459 68.9008 107.664 69.5473C107.766 69.8698 107.833 70.1167 107.871 70.2765C107.888 70.3474 107.906 70.4255 107.915 70.4891L107.916 70.4904C107.917 70.5015 107.926 70.5544 107.928 70.6181C107.928 70.6377 107.929 70.6761 107.925 70.7242L107.925 70.7262C107.923 70.7552 107.914 70.8842 107.851 71.0337C107.808 71.1221 107.661 71.327 107.548 71.4322C107.364 71.548 106.941 71.6521 106.721 71.6339C106.566 71.591 106.334 71.47 106.254 71.4072C106.206 71.3628 106.132 71.2814 106.105 71.2463C106.082 71.2139 106.061 71.182 106.045 71.153C106.024 71.1312 105.997 71.1028 105.963 71.0671C105.837 70.938 105.645 70.7509 105.389 70.5077C104.878 70.0234 104.135 69.3408 103.202 68.5021C101.337 66.8258 98.7255 64.5384 95.7176 61.989C90.4996 57.5664 84.1094 52.3731 78.3629 48.2162C79.5546 51.7016 80.3061 54.5159 80.7599 56.6945C81.3299 59.431 81.4474 61.2443 81.3304 62.1296L80.986 64.7357L79.4984 62.5698L63.6203 39.4521C57.6794 35.6451 43.6619 25.1774 33.5338 12.6727C27.3445 5.03117 20.9477 2.37037 15.8582 2.0385C13.3003 1.87171 11.0524 2.29086 9.29538 2.97984C7.51613 3.67751 6.31501 4.62033 5.7589 5.43377C5.6488 5.59483 5.53485 5.75879 5.4182 5.92663C4.03458 7.91749 2.27155 10.4543 2.04988 15.1593C1.8065 20.3253 3.42799 28.2044 9.81217 40.7957L8.91166 41.2457L9.81217 40.7957C10.0084 41.1828 10.628 41.8794 11.7619 42.8647C12.8551 43.8145 14.316 44.9411 16.0483 46.1858C19.5102 48.6733 24.0012 51.594 28.6751 54.4567C33.3474 57.3184 38.1894 60.1142 42.3493 62.3523C46.5347 64.6043 49.9596 66.2531 51.8297 66.8631L55.247 67.9778L51.726 68.7752C50.9289 68.9557 49.691 68.9268 48.0509 68.6693C46.3773 68.4066 44.1858 67.8892 41.4293 67.0126C36.6935 65.5067 30.2539 62.929 21.8521 58.7197C26.3971 64.0634 30.6585 67.9321 36.8432 70.8052C44.4167 74.3235 54.9617 76.3884 72.5812 77.6252L75.7053 77.8445L73.0228 79.4631C71.8088 80.1957 70.0958 80.74 68.0237 81.1195C65.9356 81.502 63.4133 81.7292 60.5323 81.7866C55.7071 81.8827 49.8307 81.5033 43.223 80.5528C53.4415 88.2453 62.604 94.211 75.6462 99.5693C81.2229 101.86 88.8596 102.305 96.2433 101.883C103.599 101.463 110.565 100.191 114.713 99.1522L115.41 100.998C112.206 102.628 105.004 105.728 97.874 107.275L97.9845 107.302C102.825 108.495 105.348 109.116 108.019 109.508C111.057 109.953 114.271 110.097 121.287 110.411L121.288 110.411C122.223 110.453 123.225 110.498 124.304 110.547C133.336 110.958 139.22 109.558 142.853 107.443C146.424 105.365 147.852 102.585 148.028 99.9907C148.003 99.6148 147.821 98.8851 147.567 98.2018C147.467 97.9294 147.367 97.7003 147.283 97.5341C146.325 97.46 145.383 97.3771 144.458 97.2849C136.524 96.4935 125.783 93.7154 115.629 90.5902C105.458 87.4595 95.804 83.9577 90.0151 81.6856L89.9981 81.6789L89.9813 81.6716C77.4971 76.2398 47.6637 57.6457 27.6234 26.4924L29.2762 25.3496C52.8465 55.9086 78.0606 69.1375 101.268 80.0632ZM193.401 92.5498C193.422 92.5462 193.426 92.5465 193.403 92.5496L193.401 92.5498ZM133.808 83.7845C133.808 83.7847 133.806 83.785 133.799 83.7851C133.804 83.7845 133.808 83.7844 133.808 83.7845ZM28.0903 208.621C28.1756 208.792 28.2628 208.969 28.3533 209.153C29.4486 211.383 31.0222 214.586 35.5642 217.438C40.426 220.49 48.5956 223.092 63.069 223.979C63.9467 224.033 65.2151 223.725 66.6316 223.262C68.0997 222.782 69.8883 222.079 71.8819 221.22C75.8722 219.499 80.7457 217.124 85.637 214.575C90.5301 212.026 95.4548 209.297 99.5492 206.864C100.766 206.14 101.916 205.44 102.974 204.775C102.336 205.398 101.612 206.072 100.793 206.795C96.5976 210.5 89.9542 215.47 79.8552 221.602L80.5402 223.428C89.9875 222.144 97.1105 220.611 104.365 215.7C110.869 211.297 117.416 204.221 125.915 192.342C125.255 194.119 124.278 196.183 122.989 198.478C120.283 203.294 116.233 209.073 110.947 215.269L112.106 216.831C125.784 211.441 136.662 206.486 149.259 197.097C154.442 193.234 158.819 186.648 162.177 180.096C163.668 177.184 164.971 174.255 166.062 171.535C165.31 175.728 164.126 180.404 162.356 184.228L164.004 185.339C165.299 184.02 166.43 182.878 167.43 181.867L167.436 181.861C170.935 178.324 172.833 176.406 174.58 174.253C176.561 171.813 178.359 169.06 182.117 163.304L182.117 163.304C182.627 162.523 183.173 161.688 183.76 160.79C188.752 153.157 190.667 147.081 190.608 142.407C190.549 137.69 188.472 134.441 185.645 132.612L185.605 132.586L185.562 132.564C184.996 132.269 184.086 132.021 183.308 131.873C191.595 119.672 199.569 104.165 202.794 97.3229L202.984 96.9191L202.801 96.5084C202.63 96.1249 202.4 95.4447 202.303 94.7245C202.228 94.17 202.244 93.6835 202.351 93.3062C202.386 93.2342 202.417 93.1692 202.444 93.1115C202.473 93.0508 202.497 92.9982 202.517 92.9541C202.536 92.9131 202.554 92.8734 202.569 92.8386C202.576 92.8216 202.585 92.7995 202.594 92.7758L202.594 92.7745C202.598 92.7652 202.611 92.7297 202.625 92.6817C202.63 92.6645 202.634 92.6458 202.639 92.6261C202.641 92.6129 202.646 92.5896 202.649 92.5651C202.653 92.5437 202.656 92.5215 202.658 92.5045C202.661 92.446 202.653 92.2831 202.633 92.1799C202.563 91.9858 202.21 91.5835 201.905 91.4469C201.638 91.4127 201.24 91.495 201.116 91.5588C200.961 91.653 200.868 91.7712 200.863 91.7771L200.863 91.7774C200.837 91.8095 200.817 91.8371 200.808 91.8506C200.775 91.8988 200.745 91.9501 200.731 91.9754C200.622 92.166 200.535 92.3641 200.466 92.5664C200.436 92.6271 200.404 92.6926 200.37 92.7628C200.349 92.8053 200.327 92.8496 200.305 92.8955C199.938 93.6395 199.35 94.8073 198.587 96.2831C197.061 99.2345 194.842 103.409 192.31 107.877C189.777 112.348 186.938 117.101 184.17 121.216C181.548 125.114 179.037 128.367 176.947 130.279C175.162 129.915 172.934 130.136 170.578 130.659C167.93 131.246 164.966 132.25 161.999 133.438C156.063 135.814 150.006 138.969 146.236 141.152L147.077 142.95C150.242 141.931 154.885 140.555 158.544 139.725C159.821 139.435 160.943 139.22 161.826 139.106C161.171 139.433 160.329 139.798 159.328 140.193C157.011 141.105 153.93 142.139 150.549 143.191C143.792 145.291 135.909 147.436 130.712 148.769L131.045 150.718C131.018 150.719 130.9 150.725 130.747 150.676C130.574 150.62 130.281 150.46 130.147 150.102C130.03 149.788 130.118 149.533 130.15 149.455C130.171 149.404 130.191 149.368 130.204 149.348C130.208 149.341 130.213 149.335 130.216 149.329C130.222 149.32 130.227 149.315 130.228 149.313L130.228 149.313C130.224 149.318 130.18 149.368 130.056 149.472C129.931 149.577 129.752 149.715 129.503 149.893C128.498 150.61 126.513 151.853 122.878 153.896L123.627 155.723C127.642 154.788 130.995 154.66 133.431 154.794C131.026 155.54 127.799 156.583 124.178 157.815C116.638 160.38 107.355 163.775 100.218 167.019L97.2866 168.351L100.487 168.896C105.659 169.777 109.45 170.757 112.078 171.616C112.508 171.757 112.904 171.894 113.269 172.026L88.5291 173.698L88.3253 173.711L88.1439 173.802C82.0635 176.841 65.8565 183.52 49.8674 185.845C39.5519 187.346 33.4658 191.695 30.2688 196.374C28.6777 198.703 27.814 201.098 27.501 203.229C27.1914 205.336 27.4105 207.266 28.0903 208.621ZM180.552 132.321C180.587 132.26 180.625 132.206 180.666 132.158C189.048 120.122 197.328 104.128 200.78 96.8587C200.75 96.7783 200.72 96.6941 200.691 96.6065C200.593 96.7968 200.492 96.9931 200.388 97.1951C198.853 100.163 196.622 104.36 194.076 108.855C191.53 113.348 188.663 118.149 185.856 122.321C183.112 126.401 180.374 129.958 178.017 132.016C173.961 138.589 161.823 154.226 144.75 165.657C129.442 175.906 112.456 186.514 89.5968 193.46C112.61 187.868 130.487 178.279 138.169 172.801C143.037 169.05 150.911 162.645 158.715 155.622C166.54 148.58 174.237 140.964 178.778 134.797C179.368 133.995 179.96 133.168 180.552 132.321ZM143.603 164.015C159.479 153.385 171.033 139.027 175.574 132.097C174.354 132.027 172.823 132.198 171.041 132.593C168.542 133.147 165.69 134.108 162.777 135.274C160.461 136.201 158.124 137.251 155.914 138.314C156.655 138.125 157.38 137.95 158.071 137.793C159.924 137.373 161.616 137.069 162.778 137.034C163.074 137.025 163.363 137.032 163.627 137.067C163.876 137.1 164.181 137.167 164.456 137.328C164.763 137.507 165.069 137.83 165.13 138.311C165.183 138.73 165.023 139.084 164.881 139.315C164.691 139.623 164.401 139.874 164.128 140.072C163.84 140.282 163.489 140.492 163.097 140.699C162.311 141.116 161.285 141.565 160.095 142.034C157.709 142.973 154.573 144.025 151.175 145.081C144.626 147.117 137.04 149.19 131.829 150.536L131.826 150.54C131.61 150.812 131.221 151.129 130.699 151.501C130.197 151.859 129.493 152.323 128.527 152.917C130.887 152.701 132.894 152.745 134.472 152.882C135.806 152.997 136.834 153.18 137.507 153.329C137.844 153.404 138.095 153.47 138.256 153.518C138.327 153.539 138.404 153.563 138.466 153.586L138.467 153.587L138.467 153.587C138.478 153.591 138.528 153.61 138.586 153.641C138.603 153.65 138.638 153.668 138.678 153.696L138.68 153.697C138.705 153.713 138.814 153.786 138.914 153.914C138.971 153.994 139.079 154.221 139.115 154.37C139.126 154.584 139.006 154.995 138.88 155.173C138.765 155.283 138.542 155.419 138.446 155.456C138.383 155.474 138.274 155.496 138.23 155.501C138.189 155.505 138.151 155.506 138.117 155.506C138.088 155.512 138.049 155.521 138 155.533C137.823 155.575 137.562 155.644 137.219 155.74C136.535 155.931 135.561 156.22 134.353 156.593C131.939 157.338 128.612 158.411 124.855 159.689C118.338 161.906 110.554 164.733 104.007 167.531C107.683 168.263 110.545 169.032 112.697 169.736C115.401 170.621 117.062 171.428 117.786 171.97L119.917 173.565L117.259 173.744L88.8908 175.661C82.5562 178.8 66.2972 185.463 50.1827 187.806C40.3353 189.239 34.7855 193.337 31.9475 197.491C30.5211 199.578 29.7676 201.696 29.4979 203.531C29.2248 205.39 29.4574 206.881 29.8982 207.76C29.9854 207.934 30.0734 208.112 30.1634 208.295C31.2309 210.465 32.5911 213.23 36.6381 215.77C41.0815 218.56 48.855 221.123 63.174 222.001C63.6143 222.028 64.5396 221.85 65.9773 221.38C67.3633 220.928 69.0893 220.251 71.0553 219.403C74.9845 217.709 79.8109 215.358 84.6777 212.822C89.5428 210.287 94.4344 207.576 98.4921 205.164C102.575 202.738 105.744 200.656 107.219 199.374L109.912 197.031L108.856 200.418C108.617 201.185 107.973 202.221 106.925 203.484C105.856 204.773 104.303 206.374 102.15 208.275C98.4517 211.542 92.9541 215.718 85.0334 220.744C92.0281 219.559 97.5776 217.876 103.209 214.064C110.105 209.395 117.202 201.478 127.105 187.143L128.86 184.601L128.95 187.687C128.99 189.084 128.614 190.81 127.914 192.758C127.208 194.722 126.147 196.976 124.758 199.45C122.43 203.593 119.156 208.39 115.013 213.523C126.92 208.697 136.773 203.903 148.029 195.514C152.842 191.926 157.054 185.667 160.373 179.19C163.679 172.737 166.038 166.189 167.194 162.149L169.173 162.48C169.012 166.014 168.151 173.677 165.952 180.502L166.032 180.421C169.506 176.909 171.317 175.079 172.998 173.008C174.911 170.651 176.645 167.996 180.431 162.198L180.472 162.135C180.965 161.381 181.492 160.573 182.059 159.706C186.938 152.246 188.643 146.552 188.591 142.412C188.539 138.342 186.797 135.739 184.592 134.294C184.248 134.127 183.512 133.917 182.781 133.79C182.49 133.739 182.238 133.709 182.049 133.698C181.505 134.473 180.96 135.232 180.416 135.97C175.75 142.308 167.925 150.035 160.086 157.09C152.234 164.157 144.312 170.6 139.41 174.377L139.395 174.388L139.381 174.398C128.338 182.278 96.9901 198.301 59.44 199.732L59.2564 197.758C98.0465 193.034 122.344 178.249 143.603 164.015ZM200.703 92.0644C200.711 92.0447 200.713 92.0411 200.704 92.0629L200.703 92.0644Z" fill="#FF7A00"/>
</svg>
