<svg width="128" height="128" viewBox="0 0 128 128" fill="none" xmlns="http://www.w3.org/2000/svg">
<mask id="path-1-outside-1_267_140" maskUnits="userSpaceOnUse" x="0" y="0" width="128" height="128" fill="black">
<rect fill="white" width="128" height="128"/>
<path fill-rule="evenodd" clip-rule="evenodd" d="M56.8144 31.6077C56.3351 30.7186 55.7194 28.3173 56.8051 25.4269C57.3632 23.941 58.4089 22.9486 59.4781 22.314C60.541 21.6831 61.6394 21.3977 62.3415 21.3285C63.1036 21.2235 64.3435 21.2254 65.6289 21.5637C66.913 21.9016 68.2642 22.5811 69.219 23.849C69.5596 24.1712 69.8832 24.2933 70.1742 24.3066C70.4748 24.3203 70.7736 24.2191 71.055 24.0411C71.6091 23.6905 72.0288 23.0843 72.1641 22.7162V1.27612V1H72.4407H114.002H114.015L114.029 1.0014C117.771 1.37686 125.6 4.4663 126.997 13.8265L127 13.8469V13.8673V55.0644V55.8155V56.0916H126.723H105.302H105.258L105.216 56.0779C104.732 55.9202 103.988 55.4106 103.554 54.7276C103.334 54.3805 103.183 53.9711 103.203 53.5275C103.224 53.0787 103.418 52.6273 103.831 52.1999L103.847 52.1836L103.865 52.1702C105.017 51.3129 105.649 50.0826 105.968 48.8738C106.288 47.6634 106.287 46.4965 106.19 45.8027L106.189 45.797L106.189 45.7913C106.128 45.1666 105.866 44.1458 105.276 43.1555C104.688 42.1687 103.783 41.2247 102.44 40.7216C99.6843 39.6901 97.4376 40.3013 96.6954 40.7055L96.6829 40.7123L96.6697 40.7178C95.9331 41.0257 94.1636 42.2154 93.2224 44.4364C92.2876 46.6423 92.8366 48.7498 93.2143 49.5054C93.3559 49.7789 93.6838 50.2038 94.0871 50.7042C94.1691 50.8059 94.2536 50.91 94.3393 51.0156C94.6659 51.4181 95.0096 51.8416 95.2928 52.2286C96.4684 53.8347 95.5338 55.7098 93.9725 56.0839L93.9408 56.0916H93.908L73.0158 56.0915H72.4407H72.1641V55.8154V34.1726C71.8581 32.9885 70.4313 32.2851 69.1745 33.202C68.7999 33.4754 68.3912 33.8058 67.9903 34.1301L67.9879 34.1321C67.8803 34.2191 67.7736 34.3055 67.6681 34.3902C67.1808 34.7818 66.7068 35.151 66.3724 35.3231L66.3709 35.3238L66.3694 35.3246C65.5025 35.7574 63.2191 36.342 60.8281 35.3319C58.4629 34.3328 57.1774 32.4615 56.8144 31.6077ZM93.8742 55.5394H73.0158L72.7172 55.5393V34.1388V34.1061L72.7096 34.0743C72.3349 32.5157 70.4569 31.5825 68.8482 32.7561C68.4611 33.0385 68.0376 33.3812 67.6353 33.7066L67.6333 33.7082C67.5275 33.7938 67.4231 33.8782 67.3214 33.96C66.8201 34.3627 66.3946 34.6901 66.1205 34.8314C65.3638 35.2085 63.2531 35.7566 61.0436 34.8233C58.8191 33.8837 57.6275 32.117 57.3191 31.3814L57.3136 31.3683L57.3067 31.3559C56.902 30.6147 56.2898 28.3715 57.323 25.6207C57.8269 24.2791 58.7723 23.3754 59.7607 22.7887C60.7525 22.2 61.775 21.9384 62.4006 21.8777L62.4064 21.8771L62.4121 21.8764C63.1069 21.7797 64.2757 21.7786 65.488 22.0977C66.6987 22.4162 67.9309 23.0477 68.7896 24.1978L68.8031 24.2158L68.8193 24.2315C69.2474 24.6436 69.6995 24.8377 70.149 24.8583C70.5934 24.8785 71.0033 24.7276 71.351 24.5076C72.0351 24.0747 72.5455 23.332 72.7036 22.8482L72.7172 22.8065V22.7626V1.55224H113.987C117.587 1.91902 125.094 4.89661 126.447 13.8878V55.0644V55.5394H105.349C104.98 55.4043 104.373 54.9853 104.022 54.432C103.843 54.1511 103.742 53.8527 103.756 53.5526C103.769 53.2621 103.891 52.9389 104.214 52.5989C105.484 51.6456 106.165 50.2965 106.503 49.0145C106.842 47.7311 106.844 46.4932 106.738 45.7322C106.669 45.0313 106.383 43.9347 105.751 42.8734C105.116 41.8059 104.122 40.7618 102.634 40.2046C99.7388 39.1206 97.3336 39.7354 96.4431 40.2139C95.5881 40.5763 93.7137 41.8596 92.7131 44.2213C91.7014 46.6085 92.2868 48.8883 92.7204 49.7539L92.7211 49.7553L92.7219 49.7569C92.8942 50.0907 93.264 50.5639 93.6562 51.0504C93.7411 51.1557 93.8276 51.2624 93.9147 51.3696L93.9192 51.3753C94.2431 51.7744 94.5733 52.1814 94.8462 52.5545C95.7646 53.8092 95.0602 55.2339 93.8742 55.5394ZM24.0389 75.0772C24.017 75.1061 23.9936 75.135 23.9688 75.1641C23.9426 75.195 23.9146 75.226 23.8851 75.2572C23.3392 75.667 22.9021 76.15 22.5543 76.6694C22.0371 77.3962 21.7034 78.2033 21.497 78.9852C21.1582 80.2687 21.1562 81.5066 21.2616 82.2676C21.3307 82.9685 21.6165 84.0651 22.2485 85.1264C22.8842 86.1939 23.878 87.238 25.3662 87.7952C28.2612 88.8791 30.6664 88.2644 31.5569 87.7859C32.2294 87.5008 33.5326 86.6461 34.5451 85.145C34.8582 84.7017 35.1471 84.1991 35.3862 83.6348C36.3978 81.2476 35.8123 78.9678 35.3789 78.1022L35.3781 78.1008L35.3773 78.0992C35.205 77.7652 34.8351 77.2922 34.443 76.8056C34.397 76.7484 34.3504 76.6909 34.3035 76.633L34.1845 76.4863L34.1796 76.4804L34.178 76.4784L34.1777 76.478C33.8546 76.0796 33.5254 75.6738 33.2529 75.3016C32.7016 74.5482 32.7352 73.7336 33.1068 73.1368C33.3549 72.8112 33.7109 72.5673 34.1258 72.4604H54.9842L55.2828 72.4605V93.8609V93.8936L55.2904 93.9254C55.6651 95.4841 57.5431 96.4173 59.1518 95.2436C59.5389 94.9612 59.9624 94.6186 60.3647 94.2931L60.3667 94.2916C60.4726 94.206 60.5769 94.1216 60.6786 94.0398C61.1799 93.6371 61.6054 93.3097 61.8795 93.1684C62.6362 92.7912 64.7469 92.2432 66.9564 93.1765C69.1809 94.1161 70.3725 95.8828 70.6809 96.6184L70.6864 96.6314L70.6933 96.6439C71.0798 97.3517 71.6555 99.4291 70.8069 102.01C70.7765 102.1 70.7444 102.189 70.7104 102.279C70.2065 103.621 69.261 104.525 68.2726 105.112C67.2808 105.7 66.2584 105.962 65.6327 106.023L65.6269 106.023L65.6213 106.024C64.9264 106.121 63.7576 106.122 62.5453 105.803C61.3346 105.484 60.1024 104.852 59.2438 103.702L59.2303 103.684L59.214 103.669C58.7859 103.257 58.3338 103.062 57.8843 103.042C57.4399 103.022 57.03 103.173 56.6823 103.393C55.9982 103.825 55.4878 104.568 55.3298 105.052L55.3161 105.094V105.095C55.309 105.114 55.3025 105.133 55.2964 105.152L55.2828 105.193V105.237V126.448H14.0122C10.4133 126.081 2.90582 123.103 1.55312 114.112V72.9354V72.4604H22.6513C23.0201 72.5955 23.6272 73.0145 23.9784 73.5677C24.1567 73.8487 24.2579 74.147 24.2442 74.4471C24.2352 74.6438 24.1761 74.8556 24.0389 75.0772ZM56.1786 72.0406V72.0518H77.2697C78.4557 71.7463 79.1603 70.3218 78.2419 69.0669C77.9686 68.6936 77.6384 68.2865 77.3143 67.887L77.3103 67.8822C77.2567 67.816 77.2031 67.7502 77.1502 67.6847L77.0518 67.5629C76.6596 67.0763 76.2898 66.6033 76.1175 66.2693L76.1167 66.2677L76.1159 66.2663C75.6825 65.4007 75.097 63.1209 76.1086 60.7337C77.1093 58.3722 78.9836 57.0888 79.8387 56.7263C80.7292 56.2478 83.1343 55.6331 86.0293 56.717C87.5175 57.2742 88.5115 58.3183 89.1471 59.3858C89.779 60.4471 90.0649 61.5437 90.1341 62.2447C90.2393 63.0056 90.2374 64.2435 89.8986 65.5269C89.5602 66.809 88.8795 68.1581 87.6097 69.1113C87.287 69.4514 87.1646 69.7745 87.1514 70.0651C87.1377 70.3652 87.239 70.6635 87.4173 70.9445C87.7684 71.4977 88.3755 71.9167 88.7442 72.0518H110.218H110.495V72.3279V113.823V113.837L110.493 113.851C110.117 117.588 107.023 125.403 97.648 126.798L97.6276 126.801H97.6072H56.345H55.8359V127H55.5593H13.9982H13.9844L13.9706 126.999C10.2288 126.623 2.40027 123.533 1.00298 114.174L1 114.153V114.133V72.9354V72.3167V72.1842V72.0406V71.9081V30.5451V30.5312L1.00139 30.5174C1.37745 26.7815 4.47175 18.9654 13.8468 17.5703L13.8672 17.5673H13.8876H55.1498H55.9022H56.1787V17.8434V39.2309V39.2747L56.165 39.3165C56.007 39.8002 55.4966 40.5431 54.8125 40.9758C54.4648 41.1959 54.0549 41.3467 53.6105 41.3265C53.161 41.3061 52.7089 41.1119 52.2808 40.6998L52.2645 40.6841L52.251 40.666C51.3924 39.516 50.1601 38.8845 48.9495 38.566C47.7372 38.247 46.5684 38.248 45.8735 38.3446L45.8678 38.3454L45.8621 38.3459C45.2364 38.4067 44.214 38.6682 43.2222 39.2569C42.2337 39.8437 41.2883 40.7474 40.7844 42.0891C39.7513 44.8399 40.3634 47.0831 40.7682 47.8241L40.7751 47.8366L40.7806 47.8497C41.0889 48.5852 42.2805 50.3519 44.5051 51.2916C46.7144 52.2249 48.8252 51.6768 49.582 51.2997C49.856 51.1583 50.2816 50.831 50.7827 50.4283C50.8846 50.3464 50.9889 50.262 51.0947 50.1764L51.0977 50.174C51.4999 49.8486 51.9229 49.5066 52.3095 49.2245C53.9182 48.0507 55.7963 48.9839 56.171 50.5427L56.1787 50.5744V50.6071L56.1786 71.4663V72.0406ZM56.945 103.959C56.4305 104.284 56.0318 104.83 55.8692 105.201V126.249H56.345H97.5866C106.592 124.898 109.574 117.403 109.942 113.809V72.6041H88.6978H88.6539L88.612 72.5905C88.1275 72.4327 87.3836 71.923 86.95 71.24C86.7297 70.8929 86.5786 70.4836 86.5988 70.0399C86.6194 69.5911 86.8139 69.1397 87.2266 68.7123L87.2423 68.6961L87.2603 68.6826C88.4123 67.8253 89.0447 66.595 89.3637 65.3862C89.6833 64.1758 89.6822 63.0089 89.5854 62.3152L89.5846 62.3095L89.5841 62.3037C89.5232 61.6791 89.2613 60.6583 88.6717 59.668C88.084 58.6811 87.1789 57.7372 85.8352 57.2341C83.08 56.2025 80.8332 56.8138 80.0909 57.218L80.0784 57.2247L80.0654 57.2303C79.3286 57.5382 77.5591 58.7278 76.618 60.9489C75.6833 63.1548 76.2322 65.2622 76.61 66.0178C76.7514 66.2914 77.0793 66.7164 77.4827 67.2167C77.5646 67.3183 77.6492 67.4225 77.7349 67.5282C78.0613 67.9304 78.4052 68.354 78.6885 68.7411C79.8639 70.3473 78.9293 72.2224 77.3682 72.5964L77.3363 72.6041H77.3036H55.8693L55.8692 72.9022V93.7276C56.1752 94.9117 57.6021 95.6151 58.8588 94.6981C59.2342 94.4243 59.6439 94.0929 60.0456 93.768C60.153 93.6811 60.2598 93.5947 60.3653 93.51C60.8526 93.1184 61.3265 92.7492 61.6609 92.5772L61.6624 92.5764L61.6639 92.5756C62.5308 92.1428 64.8142 91.5583 67.2052 92.5684C69.5706 93.5674 70.8559 95.4388 71.219 96.2925C71.682 97.1515 72.2725 99.4225 71.3325 102.182C71.29 102.311 71.2443 102.442 71.1949 102.573C70.6368 104.059 69.5911 105.051 68.522 105.686C67.459 106.317 66.3606 106.602 65.6585 106.671C64.8964 106.776 63.6565 106.774 62.3711 106.436C61.087 106.098 59.7358 105.419 58.781 104.151C58.4404 103.829 58.1168 103.706 57.8258 103.693C57.5252 103.68 57.2264 103.781 56.945 103.959ZM32.6499 72.8266C32.9789 72.3107 33.5028 71.9216 34.1266 71.7721L34.1585 71.7644H34.1912H55.6255L55.6256 71.4663V50.6409C55.3196 49.4568 53.8927 48.7534 52.636 49.6704C52.2632 49.9423 51.8567 50.271 51.4577 50.5937L51.4492 50.6005C51.3418 50.6874 51.235 50.7738 51.1295 50.8585C50.6422 51.2501 50.1683 51.6194 49.8339 51.7913L49.8324 51.7921L49.8309 51.7929C48.964 52.2257 46.6806 52.8102 44.2896 51.8002C41.9242 50.8011 40.6389 48.9297 40.2758 48.076C39.7966 47.1869 39.1809 44.7856 40.2665 41.8951C40.8246 40.4092 41.8703 39.417 42.9395 38.7823C44.0025 38.1513 45.1009 37.8659 45.8029 37.7969C46.5651 37.6918 47.805 37.6937 49.0904 38.0319C50.3744 38.3698 51.7257 39.0495 52.6805 40.3172C53.021 40.6394 53.3447 40.7616 53.6357 40.7748C53.9363 40.7885 54.2351 40.6875 54.5165 40.5094C55.0706 40.1589 55.4903 39.5527 55.6256 39.1845V18.1196H55.1498H13.9082C4.90276 19.4701 1.92046 26.9657 1.55312 30.559V71.7644H22.797H22.8409L22.8827 71.778C23.3673 71.9359 24.1112 72.4455 24.5447 73.1285C24.7651 73.4756 24.9162 73.8849 24.896 74.3286C24.8796 74.6852 24.7535 75.0434 24.4953 75.39C24.4072 75.5284 24.2989 75.6654 24.1691 75.7999L24.1534 75.8161L24.1352 75.8296C23.6845 76.1651 23.3133 76.5577 23.0093 76.9838C22.5917 77.6094 22.3114 78.2993 22.1311 78.9823C21.8115 80.1927 21.8126 81.3596 21.9094 82.0533L21.9101 82.059L21.9107 82.0648C21.9715 82.6894 22.2335 83.7102 22.8231 84.7005C23.4107 85.6874 24.3159 86.6313 25.6596 87.1344C28.4148 88.166 30.6616 87.5547 31.4038 87.1505L31.4163 87.1438L31.4294 87.1382C31.9908 86.9037 33.152 86.1569 34.0893 84.832C34.344 84.454 34.5792 84.0317 34.7776 83.5634C35.7124 81.3575 35.1634 79.25 34.7857 78.4944C34.6441 78.2208 34.3162 77.7959 33.9129 77.2956C33.8309 77.1939 33.7464 77.0897 33.6607 76.9841C33.3341 76.5817 32.9904 76.1582 32.7072 75.7712C31.9566 74.7458 32.0662 73.6108 32.6499 72.8266Z"/>
</mask>
<path fill-rule="evenodd" clip-rule="evenodd" d="M56.8144 31.6077C56.3351 30.7186 55.7194 28.3173 56.8051 25.4269C57.3632 23.941 58.4089 22.9486 59.4781 22.314C60.541 21.6831 61.6394 21.3977 62.3415 21.3285C63.1036 21.2235 64.3435 21.2254 65.6289 21.5637C66.913 21.9016 68.2642 22.5811 69.219 23.849C69.5596 24.1712 69.8832 24.2933 70.1742 24.3066C70.4748 24.3203 70.7736 24.2191 71.055 24.0411C71.6091 23.6905 72.0288 23.0843 72.1641 22.7162V1.27612V1H72.4407H114.002H114.015L114.029 1.0014C117.771 1.37686 125.6 4.4663 126.997 13.8265L127 13.8469V13.8673V55.0644V55.8155V56.0916H126.723H105.302H105.258L105.216 56.0779C104.732 55.9202 103.988 55.4106 103.554 54.7276C103.334 54.3805 103.183 53.9711 103.203 53.5275C103.224 53.0787 103.418 52.6273 103.831 52.1999L103.847 52.1836L103.865 52.1702C105.017 51.3129 105.649 50.0826 105.968 48.8738C106.288 47.6634 106.287 46.4965 106.19 45.8027L106.189 45.797L106.189 45.7913C106.128 45.1666 105.866 44.1458 105.276 43.1555C104.688 42.1687 103.783 41.2247 102.44 40.7216C99.6843 39.6901 97.4376 40.3013 96.6954 40.7055L96.6829 40.7123L96.6697 40.7178C95.9331 41.0257 94.1636 42.2154 93.2224 44.4364C92.2876 46.6423 92.8366 48.7498 93.2143 49.5054C93.3559 49.7789 93.6838 50.2038 94.0871 50.7042C94.1691 50.8059 94.2536 50.91 94.3393 51.0156C94.6659 51.4181 95.0096 51.8416 95.2928 52.2286C96.4684 53.8347 95.5338 55.7098 93.9725 56.0839L93.9408 56.0916H93.908L73.0158 56.0915H72.4407H72.1641V55.8154V34.1726C71.8581 32.9885 70.4313 32.2851 69.1745 33.202C68.7999 33.4754 68.3912 33.8058 67.9903 34.1301L67.9879 34.1321C67.8803 34.2191 67.7736 34.3055 67.6681 34.3902C67.1808 34.7818 66.7068 35.151 66.3724 35.3231L66.3709 35.3238L66.3694 35.3246C65.5025 35.7574 63.2191 36.342 60.8281 35.3319C58.4629 34.3328 57.1774 32.4615 56.8144 31.6077ZM93.8742 55.5394H73.0158L72.7172 55.5393V34.1388V34.1061L72.7096 34.0743C72.3349 32.5157 70.4569 31.5825 68.8482 32.7561C68.4611 33.0385 68.0376 33.3812 67.6353 33.7066L67.6333 33.7082C67.5275 33.7938 67.4231 33.8782 67.3214 33.96C66.8201 34.3627 66.3946 34.6901 66.1205 34.8314C65.3638 35.2085 63.2531 35.7566 61.0436 34.8233C58.8191 33.8837 57.6275 32.117 57.3191 31.3814L57.3136 31.3683L57.3067 31.3559C56.902 30.6147 56.2898 28.3715 57.323 25.6207C57.8269 24.2791 58.7723 23.3754 59.7607 22.7887C60.7525 22.2 61.775 21.9384 62.4006 21.8777L62.4064 21.8771L62.4121 21.8764C63.1069 21.7797 64.2757 21.7786 65.488 22.0977C66.6987 22.4162 67.9309 23.0477 68.7896 24.1978L68.8031 24.2158L68.8193 24.2315C69.2474 24.6436 69.6995 24.8377 70.149 24.8583C70.5934 24.8785 71.0033 24.7276 71.351 24.5076C72.0351 24.0747 72.5455 23.332 72.7036 22.8482L72.7172 22.8065V22.7626V1.55224H113.987C117.587 1.91902 125.094 4.89661 126.447 13.8878V55.0644V55.5394H105.349C104.98 55.4043 104.373 54.9853 104.022 54.432C103.843 54.1511 103.742 53.8527 103.756 53.5526C103.769 53.2621 103.891 52.9389 104.214 52.5989C105.484 51.6456 106.165 50.2965 106.503 49.0145C106.842 47.7311 106.844 46.4932 106.738 45.7322C106.669 45.0313 106.383 43.9347 105.751 42.8734C105.116 41.8059 104.122 40.7618 102.634 40.2046C99.7388 39.1206 97.3336 39.7354 96.4431 40.2139C95.5881 40.5763 93.7137 41.8596 92.7131 44.2213C91.7014 46.6085 92.2868 48.8883 92.7204 49.7539L92.7211 49.7553L92.7219 49.7569C92.8942 50.0907 93.264 50.5639 93.6562 51.0504C93.7411 51.1557 93.8276 51.2624 93.9147 51.3696L93.9192 51.3753C94.2431 51.7744 94.5733 52.1814 94.8462 52.5545C95.7646 53.8092 95.0602 55.2339 93.8742 55.5394ZM24.0389 75.0772C24.017 75.1061 23.9936 75.135 23.9688 75.1641C23.9426 75.195 23.9146 75.226 23.8851 75.2572C23.3392 75.667 22.9021 76.15 22.5543 76.6694C22.0371 77.3962 21.7034 78.2033 21.497 78.9852C21.1582 80.2687 21.1562 81.5066 21.2616 82.2676C21.3307 82.9685 21.6165 84.0651 22.2485 85.1264C22.8842 86.1939 23.878 87.238 25.3662 87.7952C28.2612 88.8791 30.6664 88.2644 31.5569 87.7859C32.2294 87.5008 33.5326 86.6461 34.5451 85.145C34.8582 84.7017 35.1471 84.1991 35.3862 83.6348C36.3978 81.2476 35.8123 78.9678 35.3789 78.1022L35.3781 78.1008L35.3773 78.0992C35.205 77.7652 34.8351 77.2922 34.443 76.8056C34.397 76.7484 34.3504 76.6909 34.3035 76.633L34.1845 76.4863L34.1796 76.4804L34.178 76.4784L34.1777 76.478C33.8546 76.0796 33.5254 75.6738 33.2529 75.3016C32.7016 74.5482 32.7352 73.7336 33.1068 73.1368C33.3549 72.8112 33.7109 72.5673 34.1258 72.4604H54.9842L55.2828 72.4605V93.8609V93.8936L55.2904 93.9254C55.6651 95.4841 57.5431 96.4173 59.1518 95.2436C59.5389 94.9612 59.9624 94.6186 60.3647 94.2931L60.3667 94.2916C60.4726 94.206 60.5769 94.1216 60.6786 94.0398C61.1799 93.6371 61.6054 93.3097 61.8795 93.1684C62.6362 92.7912 64.7469 92.2432 66.9564 93.1765C69.1809 94.1161 70.3725 95.8828 70.6809 96.6184L70.6864 96.6314L70.6933 96.6439C71.0798 97.3517 71.6555 99.4291 70.8069 102.01C70.7765 102.1 70.7444 102.189 70.7104 102.279C70.2065 103.621 69.261 104.525 68.2726 105.112C67.2808 105.7 66.2584 105.962 65.6327 106.023L65.6269 106.023L65.6213 106.024C64.9264 106.121 63.7576 106.122 62.5453 105.803C61.3346 105.484 60.1024 104.852 59.2438 103.702L59.2303 103.684L59.214 103.669C58.7859 103.257 58.3338 103.062 57.8843 103.042C57.4399 103.022 57.03 103.173 56.6823 103.393C55.9982 103.825 55.4878 104.568 55.3298 105.052L55.3161 105.094V105.095C55.309 105.114 55.3025 105.133 55.2964 105.152L55.2828 105.193V105.237V126.448H14.0122C10.4133 126.081 2.90582 123.103 1.55312 114.112V72.9354V72.4604H22.6513C23.0201 72.5955 23.6272 73.0145 23.9784 73.5677C24.1567 73.8487 24.2579 74.147 24.2442 74.4471C24.2352 74.6438 24.1761 74.8556 24.0389 75.0772ZM56.1786 72.0406V72.0518H77.2697C78.4557 71.7463 79.1603 70.3218 78.2419 69.0669C77.9686 68.6936 77.6384 68.2865 77.3143 67.887L77.3103 67.8822C77.2567 67.816 77.2031 67.7502 77.1502 67.6847L77.0518 67.5629C76.6596 67.0763 76.2898 66.6033 76.1175 66.2693L76.1167 66.2677L76.1159 66.2663C75.6825 65.4007 75.097 63.1209 76.1086 60.7337C77.1093 58.3722 78.9836 57.0888 79.8387 56.7263C80.7292 56.2478 83.1343 55.6331 86.0293 56.717C87.5175 57.2742 88.5115 58.3183 89.1471 59.3858C89.779 60.4471 90.0649 61.5437 90.1341 62.2447C90.2393 63.0056 90.2374 64.2435 89.8986 65.5269C89.5602 66.809 88.8795 68.1581 87.6097 69.1113C87.287 69.4514 87.1646 69.7745 87.1514 70.0651C87.1377 70.3652 87.239 70.6635 87.4173 70.9445C87.7684 71.4977 88.3755 71.9167 88.7442 72.0518H110.218H110.495V72.3279V113.823V113.837L110.493 113.851C110.117 117.588 107.023 125.403 97.648 126.798L97.6276 126.801H97.6072H56.345H55.8359V127H55.5593H13.9982H13.9844L13.9706 126.999C10.2288 126.623 2.40027 123.533 1.00298 114.174L1 114.153V114.133V72.9354V72.3167V72.1842V72.0406V71.9081V30.5451V30.5312L1.00139 30.5174C1.37745 26.7815 4.47175 18.9654 13.8468 17.5703L13.8672 17.5673H13.8876H55.1498H55.9022H56.1787V17.8434V39.2309V39.2747L56.165 39.3165C56.007 39.8002 55.4966 40.5431 54.8125 40.9758C54.4648 41.1959 54.0549 41.3467 53.6105 41.3265C53.161 41.3061 52.7089 41.1119 52.2808 40.6998L52.2645 40.6841L52.251 40.666C51.3924 39.516 50.1601 38.8845 48.9495 38.566C47.7372 38.247 46.5684 38.248 45.8735 38.3446L45.8678 38.3454L45.8621 38.3459C45.2364 38.4067 44.214 38.6682 43.2222 39.2569C42.2337 39.8437 41.2883 40.7474 40.7844 42.0891C39.7513 44.8399 40.3634 47.0831 40.7682 47.8241L40.7751 47.8366L40.7806 47.8497C41.0889 48.5852 42.2805 50.3519 44.5051 51.2916C46.7144 52.2249 48.8252 51.6768 49.582 51.2997C49.856 51.1583 50.2816 50.831 50.7827 50.4283C50.8846 50.3464 50.9889 50.262 51.0947 50.1764L51.0977 50.174C51.4999 49.8486 51.9229 49.5066 52.3095 49.2245C53.9182 48.0507 55.7963 48.9839 56.171 50.5427L56.1787 50.5744V50.6071L56.1786 71.4663V72.0406ZM56.945 103.959C56.4305 104.284 56.0318 104.83 55.8692 105.201V126.249H56.345H97.5866C106.592 124.898 109.574 117.403 109.942 113.809V72.6041H88.6978H88.6539L88.612 72.5905C88.1275 72.4327 87.3836 71.923 86.95 71.24C86.7297 70.8929 86.5786 70.4836 86.5988 70.0399C86.6194 69.5911 86.8139 69.1397 87.2266 68.7123L87.2423 68.6961L87.2603 68.6826C88.4123 67.8253 89.0447 66.595 89.3637 65.3862C89.6833 64.1758 89.6822 63.0089 89.5854 62.3152L89.5846 62.3095L89.5841 62.3037C89.5232 61.6791 89.2613 60.6583 88.6717 59.668C88.084 58.6811 87.1789 57.7372 85.8352 57.2341C83.08 56.2025 80.8332 56.8138 80.0909 57.218L80.0784 57.2247L80.0654 57.2303C79.3286 57.5382 77.5591 58.7278 76.618 60.9489C75.6833 63.1548 76.2322 65.2622 76.61 66.0178C76.7514 66.2914 77.0793 66.7164 77.4827 67.2167C77.5646 67.3183 77.6492 67.4225 77.7349 67.5282C78.0613 67.9304 78.4052 68.354 78.6885 68.7411C79.8639 70.3473 78.9293 72.2224 77.3682 72.5964L77.3363 72.6041H77.3036H55.8693L55.8692 72.9022V93.7276C56.1752 94.9117 57.6021 95.6151 58.8588 94.6981C59.2342 94.4243 59.6439 94.0929 60.0456 93.768C60.153 93.6811 60.2598 93.5947 60.3653 93.51C60.8526 93.1184 61.3265 92.7492 61.6609 92.5772L61.6624 92.5764L61.6639 92.5756C62.5308 92.1428 64.8142 91.5583 67.2052 92.5684C69.5706 93.5674 70.8559 95.4388 71.219 96.2925C71.682 97.1515 72.2725 99.4225 71.3325 102.182C71.29 102.311 71.2443 102.442 71.1949 102.573C70.6368 104.059 69.5911 105.051 68.522 105.686C67.459 106.317 66.3606 106.602 65.6585 106.671C64.8964 106.776 63.6565 106.774 62.3711 106.436C61.087 106.098 59.7358 105.419 58.781 104.151C58.4404 103.829 58.1168 103.706 57.8258 103.693C57.5252 103.68 57.2264 103.781 56.945 103.959ZM32.6499 72.8266C32.9789 72.3107 33.5028 71.9216 34.1266 71.7721L34.1585 71.7644H34.1912H55.6255L55.6256 71.4663V50.6409C55.3196 49.4568 53.8927 48.7534 52.636 49.6704C52.2632 49.9423 51.8567 50.271 51.4577 50.5937L51.4492 50.6005C51.3418 50.6874 51.235 50.7738 51.1295 50.8585C50.6422 51.2501 50.1683 51.6194 49.8339 51.7913L49.8324 51.7921L49.8309 51.7929C48.964 52.2257 46.6806 52.8102 44.2896 51.8002C41.9242 50.8011 40.6389 48.9297 40.2758 48.076C39.7966 47.1869 39.1809 44.7856 40.2665 41.8951C40.8246 40.4092 41.8703 39.417 42.9395 38.7823C44.0025 38.1513 45.1009 37.8659 45.8029 37.7969C46.5651 37.6918 47.805 37.6937 49.0904 38.0319C50.3744 38.3698 51.7257 39.0495 52.6805 40.3172C53.021 40.6394 53.3447 40.7616 53.6357 40.7748C53.9363 40.7885 54.2351 40.6875 54.5165 40.5094C55.0706 40.1589 55.4903 39.5527 55.6256 39.1845V18.1196H55.1498H13.9082C4.90276 19.4701 1.92046 26.9657 1.55312 30.559V71.7644H22.797H22.8409L22.8827 71.778C23.3673 71.9359 24.1112 72.4455 24.5447 73.1285C24.7651 73.4756 24.9162 73.8849 24.896 74.3286C24.8796 74.6852 24.7535 75.0434 24.4953 75.39C24.4072 75.5284 24.2989 75.6654 24.1691 75.7999L24.1534 75.8161L24.1352 75.8296C23.6845 76.1651 23.3133 76.5577 23.0093 76.9838C22.5917 77.6094 22.3114 78.2993 22.1311 78.9823C21.8115 80.1927 21.8126 81.3596 21.9094 82.0533L21.9101 82.059L21.9107 82.0648C21.9715 82.6894 22.2335 83.7102 22.8231 84.7005C23.4107 85.6874 24.3159 86.6313 25.6596 87.1344C28.4148 88.166 30.6616 87.5547 31.4038 87.1505L31.4163 87.1438L31.4294 87.1382C31.9908 86.9037 33.152 86.1569 34.0893 84.832C34.344 84.454 34.5792 84.0317 34.7776 83.5634C35.7124 81.3575 35.1634 79.25 34.7857 78.4944C34.6441 78.2208 34.3162 77.7959 33.9129 77.2956C33.8309 77.1939 33.7464 77.0897 33.6607 76.9841C33.3341 76.5817 32.9904 76.1582 32.7072 75.7712C31.9566 74.7458 32.0662 73.6108 32.6499 72.8266Z" fill="#FF7900"/>
<path fill-rule="evenodd" clip-rule="evenodd" d="M56.8144 31.6077C56.3351 30.7186 55.7194 28.3173 56.8051 25.4269C57.3632 23.941 58.4089 22.9486 59.4781 22.314C60.541 21.6831 61.6394 21.3977 62.3415 21.3285C63.1036 21.2235 64.3435 21.2254 65.6289 21.5637C66.913 21.9016 68.2642 22.5811 69.219 23.849C69.5596 24.1712 69.8832 24.2933 70.1742 24.3066C70.4748 24.3203 70.7736 24.2191 71.055 24.0411C71.6091 23.6905 72.0288 23.0843 72.1641 22.7162V1.27612V1H72.4407H114.002H114.015L114.029 1.0014C117.771 1.37686 125.6 4.4663 126.997 13.8265L127 13.8469V13.8673V55.0644V55.8155V56.0916H126.723H105.302H105.258L105.216 56.0779C104.732 55.9202 103.988 55.4106 103.554 54.7276C103.334 54.3805 103.183 53.9711 103.203 53.5275C103.224 53.0787 103.418 52.6273 103.831 52.1999L103.847 52.1836L103.865 52.1702C105.017 51.3129 105.649 50.0826 105.968 48.8738C106.288 47.6634 106.287 46.4965 106.19 45.8027L106.189 45.797L106.189 45.7913C106.128 45.1666 105.866 44.1458 105.276 43.1555C104.688 42.1687 103.783 41.2247 102.44 40.7216C99.6843 39.6901 97.4376 40.3013 96.6954 40.7055L96.6829 40.7123L96.6697 40.7178C95.9331 41.0257 94.1636 42.2154 93.2224 44.4364C92.2876 46.6423 92.8366 48.7498 93.2143 49.5054C93.3559 49.7789 93.6838 50.2038 94.0871 50.7042C94.1691 50.8059 94.2536 50.91 94.3393 51.0156C94.6659 51.4181 95.0096 51.8416 95.2928 52.2286C96.4684 53.8347 95.5338 55.7098 93.9725 56.0839L93.9408 56.0916H93.908L73.0158 56.0915H72.4407H72.1641V55.8154V34.1726C71.8581 32.9885 70.4313 32.2851 69.1745 33.202C68.7999 33.4754 68.3912 33.8058 67.9903 34.1301L67.9879 34.1321C67.8803 34.2191 67.7736 34.3055 67.6681 34.3902C67.1808 34.7818 66.7068 35.151 66.3724 35.3231L66.3709 35.3238L66.3694 35.3246C65.5025 35.7574 63.2191 36.342 60.8281 35.3319C58.4629 34.3328 57.1774 32.4615 56.8144 31.6077ZM93.8742 55.5394H73.0158L72.7172 55.5393V34.1388V34.1061L72.7096 34.0743C72.3349 32.5157 70.4569 31.5825 68.8482 32.7561C68.4611 33.0385 68.0376 33.3812 67.6353 33.7066L67.6333 33.7082C67.5275 33.7938 67.4231 33.8782 67.3214 33.96C66.8201 34.3627 66.3946 34.6901 66.1205 34.8314C65.3638 35.2085 63.2531 35.7566 61.0436 34.8233C58.8191 33.8837 57.6275 32.117 57.3191 31.3814L57.3136 31.3683L57.3067 31.3559C56.902 30.6147 56.2898 28.3715 57.323 25.6207C57.8269 24.2791 58.7723 23.3754 59.7607 22.7887C60.7525 22.2 61.775 21.9384 62.4006 21.8777L62.4064 21.8771L62.4121 21.8764C63.1069 21.7797 64.2757 21.7786 65.488 22.0977C66.6987 22.4162 67.9309 23.0477 68.7896 24.1978L68.8031 24.2158L68.8193 24.2315C69.2474 24.6436 69.6995 24.8377 70.149 24.8583C70.5934 24.8785 71.0033 24.7276 71.351 24.5076C72.0351 24.0747 72.5455 23.332 72.7036 22.8482L72.7172 22.8065V22.7626V1.55224H113.987C117.587 1.91902 125.094 4.89661 126.447 13.8878V55.0644V55.5394H105.349C104.98 55.4043 104.373 54.9853 104.022 54.432C103.843 54.1511 103.742 53.8527 103.756 53.5526C103.769 53.2621 103.891 52.9389 104.214 52.5989C105.484 51.6456 106.165 50.2965 106.503 49.0145C106.842 47.7311 106.844 46.4932 106.738 45.7322C106.669 45.0313 106.383 43.9347 105.751 42.8734C105.116 41.8059 104.122 40.7618 102.634 40.2046C99.7388 39.1206 97.3336 39.7354 96.4431 40.2139C95.5881 40.5763 93.7137 41.8596 92.7131 44.2213C91.7014 46.6085 92.2868 48.8883 92.7204 49.7539L92.7211 49.7553L92.7219 49.7569C92.8942 50.0907 93.264 50.5639 93.6562 51.0504C93.7411 51.1557 93.8276 51.2624 93.9147 51.3696L93.9192 51.3753C94.2431 51.7744 94.5733 52.1814 94.8462 52.5545C95.7646 53.8092 95.0602 55.2339 93.8742 55.5394ZM24.0389 75.0772C24.017 75.1061 23.9936 75.135 23.9688 75.1641C23.9426 75.195 23.9146 75.226 23.8851 75.2572C23.3392 75.667 22.9021 76.15 22.5543 76.6694C22.0371 77.3962 21.7034 78.2033 21.497 78.9852C21.1582 80.2687 21.1562 81.5066 21.2616 82.2676C21.3307 82.9685 21.6165 84.0651 22.2485 85.1264C22.8842 86.1939 23.878 87.238 25.3662 87.7952C28.2612 88.8791 30.6664 88.2644 31.5569 87.7859C32.2294 87.5008 33.5326 86.6461 34.5451 85.145C34.8582 84.7017 35.1471 84.1991 35.3862 83.6348C36.3978 81.2476 35.8123 78.9678 35.3789 78.1022L35.3781 78.1008L35.3773 78.0992C35.205 77.7652 34.8351 77.2922 34.443 76.8056C34.397 76.7484 34.3504 76.6909 34.3035 76.633L34.1845 76.4863L34.1796 76.4804L34.178 76.4784L34.1777 76.478C33.8546 76.0796 33.5254 75.6738 33.2529 75.3016C32.7016 74.5482 32.7352 73.7336 33.1068 73.1368C33.3549 72.8112 33.7109 72.5673 34.1258 72.4604H54.9842L55.2828 72.4605V93.8609V93.8936L55.2904 93.9254C55.6651 95.4841 57.5431 96.4173 59.1518 95.2436C59.5389 94.9612 59.9624 94.6186 60.3647 94.2931L60.3667 94.2916C60.4726 94.206 60.5769 94.1216 60.6786 94.0398C61.1799 93.6371 61.6054 93.3097 61.8795 93.1684C62.6362 92.7912 64.7469 92.2432 66.9564 93.1765C69.1809 94.1161 70.3725 95.8828 70.6809 96.6184L70.6864 96.6314L70.6933 96.6439C71.0798 97.3517 71.6555 99.4291 70.8069 102.01C70.7765 102.1 70.7444 102.189 70.7104 102.279C70.2065 103.621 69.261 104.525 68.2726 105.112C67.2808 105.7 66.2584 105.962 65.6327 106.023L65.6269 106.023L65.6213 106.024C64.9264 106.121 63.7576 106.122 62.5453 105.803C61.3346 105.484 60.1024 104.852 59.2438 103.702L59.2303 103.684L59.214 103.669C58.7859 103.257 58.3338 103.062 57.8843 103.042C57.4399 103.022 57.03 103.173 56.6823 103.393C55.9982 103.825 55.4878 104.568 55.3298 105.052L55.3161 105.094V105.095C55.309 105.114 55.3025 105.133 55.2964 105.152L55.2828 105.193V105.237V126.448H14.0122C10.4133 126.081 2.90582 123.103 1.55312 114.112V72.9354V72.4604H22.6513C23.0201 72.5955 23.6272 73.0145 23.9784 73.5677C24.1567 73.8487 24.2579 74.147 24.2442 74.4471C24.2352 74.6438 24.1761 74.8556 24.0389 75.0772ZM56.1786 72.0406V72.0518H77.2697C78.4557 71.7463 79.1603 70.3218 78.2419 69.0669C77.9686 68.6936 77.6384 68.2865 77.3143 67.887L77.3103 67.8822C77.2567 67.816 77.2031 67.7502 77.1502 67.6847L77.0518 67.5629C76.6596 67.0763 76.2898 66.6033 76.1175 66.2693L76.1167 66.2677L76.1159 66.2663C75.6825 65.4007 75.097 63.1209 76.1086 60.7337C77.1093 58.3722 78.9836 57.0888 79.8387 56.7263C80.7292 56.2478 83.1343 55.6331 86.0293 56.717C87.5175 57.2742 88.5115 58.3183 89.1471 59.3858C89.779 60.4471 90.0649 61.5437 90.1341 62.2447C90.2393 63.0056 90.2374 64.2435 89.8986 65.5269C89.5602 66.809 88.8795 68.1581 87.6097 69.1113C87.287 69.4514 87.1646 69.7745 87.1514 70.0651C87.1377 70.3652 87.239 70.6635 87.4173 70.9445C87.7684 71.4977 88.3755 71.9167 88.7442 72.0518H110.218H110.495V72.3279V113.823V113.837L110.493 113.851C110.117 117.588 107.023 125.403 97.648 126.798L97.6276 126.801H97.6072H56.345H55.8359V127H55.5593H13.9982H13.9844L13.9706 126.999C10.2288 126.623 2.40027 123.533 1.00298 114.174L1 114.153V114.133V72.9354V72.3167V72.1842V72.0406V71.9081V30.5451V30.5312L1.00139 30.5174C1.37745 26.7815 4.47175 18.9654 13.8468 17.5703L13.8672 17.5673H13.8876H55.1498H55.9022H56.1787V17.8434V39.2309V39.2747L56.165 39.3165C56.007 39.8002 55.4966 40.5431 54.8125 40.9758C54.4648 41.1959 54.0549 41.3467 53.6105 41.3265C53.161 41.3061 52.7089 41.1119 52.2808 40.6998L52.2645 40.6841L52.251 40.666C51.3924 39.516 50.1601 38.8845 48.9495 38.566C47.7372 38.247 46.5684 38.248 45.8735 38.3446L45.8678 38.3454L45.8621 38.3459C45.2364 38.4067 44.214 38.6682 43.2222 39.2569C42.2337 39.8437 41.2883 40.7474 40.7844 42.0891C39.7513 44.8399 40.3634 47.0831 40.7682 47.8241L40.7751 47.8366L40.7806 47.8497C41.0889 48.5852 42.2805 50.3519 44.5051 51.2916C46.7144 52.2249 48.8252 51.6768 49.582 51.2997C49.856 51.1583 50.2816 50.831 50.7827 50.4283C50.8846 50.3464 50.9889 50.262 51.0947 50.1764L51.0977 50.174C51.4999 49.8486 51.9229 49.5066 52.3095 49.2245C53.9182 48.0507 55.7963 48.9839 56.171 50.5427L56.1787 50.5744V50.6071L56.1786 71.4663V72.0406ZM56.945 103.959C56.4305 104.284 56.0318 104.83 55.8692 105.201V126.249H56.345H97.5866C106.592 124.898 109.574 117.403 109.942 113.809V72.6041H88.6978H88.6539L88.612 72.5905C88.1275 72.4327 87.3836 71.923 86.95 71.24C86.7297 70.8929 86.5786 70.4836 86.5988 70.0399C86.6194 69.5911 86.8139 69.1397 87.2266 68.7123L87.2423 68.6961L87.2603 68.6826C88.4123 67.8253 89.0447 66.595 89.3637 65.3862C89.6833 64.1758 89.6822 63.0089 89.5854 62.3152L89.5846 62.3095L89.5841 62.3037C89.5232 61.6791 89.2613 60.6583 88.6717 59.668C88.084 58.6811 87.1789 57.7372 85.8352 57.2341C83.08 56.2025 80.8332 56.8138 80.0909 57.218L80.0784 57.2247L80.0654 57.2303C79.3286 57.5382 77.5591 58.7278 76.618 60.9489C75.6833 63.1548 76.2322 65.2622 76.61 66.0178C76.7514 66.2914 77.0793 66.7164 77.4827 67.2167C77.5646 67.3183 77.6492 67.4225 77.7349 67.5282C78.0613 67.9304 78.4052 68.354 78.6885 68.7411C79.8639 70.3473 78.9293 72.2224 77.3682 72.5964L77.3363 72.6041H77.3036H55.8693L55.8692 72.9022V93.7276C56.1752 94.9117 57.6021 95.6151 58.8588 94.6981C59.2342 94.4243 59.6439 94.0929 60.0456 93.768C60.153 93.6811 60.2598 93.5947 60.3653 93.51C60.8526 93.1184 61.3265 92.7492 61.6609 92.5772L61.6624 92.5764L61.6639 92.5756C62.5308 92.1428 64.8142 91.5583 67.2052 92.5684C69.5706 93.5674 70.8559 95.4388 71.219 96.2925C71.682 97.1515 72.2725 99.4225 71.3325 102.182C71.29 102.311 71.2443 102.442 71.1949 102.573C70.6368 104.059 69.5911 105.051 68.522 105.686C67.459 106.317 66.3606 106.602 65.6585 106.671C64.8964 106.776 63.6565 106.774 62.3711 106.436C61.087 106.098 59.7358 105.419 58.781 104.151C58.4404 103.829 58.1168 103.706 57.8258 103.693C57.5252 103.68 57.2264 103.781 56.945 103.959ZM32.6499 72.8266C32.9789 72.3107 33.5028 71.9216 34.1266 71.7721L34.1585 71.7644H34.1912H55.6255L55.6256 71.4663V50.6409C55.3196 49.4568 53.8927 48.7534 52.636 49.6704C52.2632 49.9423 51.8567 50.271 51.4577 50.5937L51.4492 50.6005C51.3418 50.6874 51.235 50.7738 51.1295 50.8585C50.6422 51.2501 50.1683 51.6194 49.8339 51.7913L49.8324 51.7921L49.8309 51.7929C48.964 52.2257 46.6806 52.8102 44.2896 51.8002C41.9242 50.8011 40.6389 48.9297 40.2758 48.076C39.7966 47.1869 39.1809 44.7856 40.2665 41.8951C40.8246 40.4092 41.8703 39.417 42.9395 38.7823C44.0025 38.1513 45.1009 37.8659 45.8029 37.7969C46.5651 37.6918 47.805 37.6937 49.0904 38.0319C50.3744 38.3698 51.7257 39.0495 52.6805 40.3172C53.021 40.6394 53.3447 40.7616 53.6357 40.7748C53.9363 40.7885 54.2351 40.6875 54.5165 40.5094C55.0706 40.1589 55.4903 39.5527 55.6256 39.1845V18.1196H55.1498H13.9082C4.90276 19.4701 1.92046 26.9657 1.55312 30.559V71.7644H22.797H22.8409L22.8827 71.778C23.3673 71.9359 24.1112 72.4455 24.5447 73.1285C24.7651 73.4756 24.9162 73.8849 24.896 74.3286C24.8796 74.6852 24.7535 75.0434 24.4953 75.39C24.4072 75.5284 24.2989 75.6654 24.1691 75.7999L24.1534 75.8161L24.1352 75.8296C23.6845 76.1651 23.3133 76.5577 23.0093 76.9838C22.5917 77.6094 22.3114 78.2993 22.1311 78.9823C21.8115 80.1927 21.8126 81.3596 21.9094 82.0533L21.9101 82.059L21.9107 82.0648C21.9715 82.6894 22.2335 83.7102 22.8231 84.7005C23.4107 85.6874 24.3159 86.6313 25.6596 87.1344C28.4148 88.166 30.6616 87.5547 31.4038 87.1505L31.4163 87.1438L31.4294 87.1382C31.9908 86.9037 33.152 86.1569 34.0893 84.832C34.344 84.454 34.5792 84.0317 34.7776 83.5634C35.7124 81.3575 35.1634 79.25 34.7857 78.4944C34.6441 78.2208 34.3162 77.7959 33.9129 77.2956C33.8309 77.1939 33.7464 77.0897 33.6607 76.9841C33.3341 76.5817 32.9904 76.1582 32.7072 75.7712C31.9566 74.7458 32.0662 73.6108 32.6499 72.8266Z" stroke="#FF7900" stroke-width="2" mask="url(#path-1-outside-1_267_140)"/>
<path fill-rule="evenodd" clip-rule="evenodd" d="M72.7892 44.6899C72.7892 32.6145 72.8475 33.2379 71.6522 32.5384C70.9325 32.1174 70.1376 32.0579 69.3966 32.3697C69.1271 32.4831 68.29 33.0653 67.5363 33.6635C65.8413 35.0089 65.099 35.2665 63.1813 35.1749C61.9968 35.1184 61.7079 35.0433 60.6898 34.5273C59.1966 33.7706 57.7494 32.2852 57.2531 30.9999C56.8385 29.926 56.7605 27.7928 57.0928 26.6149C57.819 24.0408 59.7239 22.3619 62.338 21.9923C64.648 21.6657 66.6957 22.3254 68.4605 23.9645C69.3539 24.7943 69.488 24.8668 70.1309 24.8668C70.9141 24.8668 71.2964 24.7091 71.9273 24.1261C72.8286 23.2933 72.7892 23.8357 72.7892 12.2569V1.60815H93.4767H114.164L115.634 1.98035C121.013 3.34271 125.009 7.48871 126.163 12.9054C126.35 13.7816 126.384 17.1403 126.384 34.6818V55.4222H115.849H105.315L104.825 55.0871C104.556 54.9028 104.226 54.5673 104.093 54.3415C103.667 53.6217 103.782 53.2384 104.708 52.2911C107.577 49.3568 107.581 44.1824 104.715 41.4764C103.758 40.5726 103.044 40.1834 101.709 39.8382C100.484 39.5212 98.3148 39.518 97.2347 39.8315C95.5148 40.3307 93.7512 41.9167 92.8321 43.7906C92.3128 44.8497 92.1341 45.6841 92.1296 47.0716C92.1233 49.0229 92.456 49.7426 94.5908 52.3949C94.8993 52.7782 95.08 53.2006 95.1318 53.6601C95.2034 54.2936 95.1659 54.3935 94.6727 54.886L94.1357 55.4222H83.4624H72.7892V44.6899Z" fill="#FF7900"/>
</svg>
